<svg width="33" height="25" viewBox="0 0 33 25" fill="none" xmlns="http://www.w3.org/2000/svg">
<path fill-rule="evenodd" clip-rule="evenodd" d="M1.3369 0.0292836C0.656649 0.0376665 0.0655896 0.0573182 0.0234005 0.0729845C-0.0661998 0.106241 -0.00449673 0.155575 2.19579 1.80755L3.79692 3.00959L12.5026 3.02608L21.2084 3.04244L21.6837 3.16296C23.0527 3.50995 23.8363 4.03821 24.5061 5.06559C24.6725 5.32106 24.8089 5.5452 24.8089 5.56361C24.8089 5.58189 24.8567 5.70186 24.9151 5.82994C25.216 6.49081 25.4734 7.55584 25.4893 8.20682L25.496 8.48167L23.7644 8.51424C21.9823 8.54763 21.827 8.56357 21.1259 8.78537C19.7385 9.22431 18.1749 10.6178 17.5811 11.9447C17.5 12.1261 17.414 12.3126 17.39 12.3592C17.3661 12.4058 17.3282 12.579 17.3059 12.744C17.2338 13.2782 17.1992 13.2973 16.832 13.0069C16.7296 12.926 16.1388 12.4815 15.519 12.0192C14.8992 11.5568 14.3798 11.165 14.3647 11.1484C14.3495 11.1317 14.0156 10.8842 13.6226 10.5984C13.2295 10.3126 12.86 10.0347 12.8015 9.98096C12.554 9.75435 12.5507 9.77634 12.5507 11.632C12.5507 12.9495 12.5676 13.401 12.6194 13.4641C12.6572 13.5101 12.886 13.6961 13.1278 13.8775C13.3697 14.0587 13.6935 14.304 13.8471 14.4226C14.0009 14.5412 14.2235 14.7108 14.3419 14.7993C14.6494 15.0296 15.2023 15.4506 15.2991 15.5282C15.3445 15.5646 15.6908 15.8256 16.0687 16.1081C17.2554 16.9955 18.7886 18.1527 18.8172 18.1825C18.8323 18.1984 19.191 18.4707 19.6142 18.7879C20.0375 19.1051 20.3962 19.3777 20.4113 19.3939C20.4264 19.4102 20.6985 19.6155 21.016 19.8503C21.3334 20.085 21.6308 20.3071 21.6768 20.3437C21.7229 20.3802 22.1063 20.6696 22.5289 20.9871C22.9514 21.3044 23.3096 21.5772 23.3247 21.5931C23.3398 21.6091 23.6119 21.8142 23.9294 22.0491C24.2468 22.2838 24.5542 22.5155 24.6125 22.5639C24.6706 22.6123 24.8314 22.7377 24.9698 22.8426C25.108 22.9474 25.2953 23.0912 25.386 23.162C25.4767 23.2327 25.823 23.4905 26.1556 23.735C26.4882 23.9795 26.7974 24.2095 26.8427 24.2464C26.8881 24.2831 27.0612 24.4113 27.2275 24.5311C27.3938 24.6509 27.5422 24.7636 27.5573 24.7815C27.7404 24.9978 27.7673 25 30.2539 25C31.5724 25 32.6673 24.9839 32.6868 24.9643C32.7291 24.9221 32.574 24.7994 31.0001 23.63C30.5506 23.2959 30.1053 22.9627 30.0106 22.8894C29.9159 22.8162 29.3315 22.3769 28.7117 21.9133C28.0919 21.4498 27.5601 21.0504 27.5299 21.0257C27.4996 21.001 27.1904 20.7704 26.8427 20.5133C26.4951 20.2561 26.1487 19.9993 26.0732 19.9427C25.9976 19.8859 25.775 19.7194 25.5784 19.5726C24.3005 18.6174 23.602 18.0935 23.4346 17.9647C23.3288 17.8832 22.9207 17.5764 22.5276 17.2827C22.1346 16.989 21.7756 16.7191 21.7299 16.683C21.6841 16.6467 21.3221 16.3736 20.9255 16.0758C20.0852 15.4453 20.0735 15.4261 20.0746 14.6879C20.077 13.17 20.7918 12.1141 22.1215 11.6641L22.5107 11.5325H25.5002H28.4898L28.531 11.3813C28.6907 10.7974 28.5471 7.54884 28.3236 6.68884C28.2952 6.57945 28.2719 6.42636 28.2719 6.34844C28.2719 6.27066 28.2472 6.19164 28.217 6.17295C28.1867 6.15426 28.162 6.08046 28.162 6.009C28.162 5.89439 27.8593 4.92981 27.7305 4.6338C26.9211 2.77391 25.6542 1.48185 23.8469 0.673114C23.2086 0.38741 22.3436 0.179487 21.2358 0.0453618C20.8193 -0.00507275 5.17514 -0.0177153 1.3369 0.0292836ZM13.0806 5.36339C13.0145 5.4703 13.3488 6.61545 13.4854 6.75013C13.5007 6.76525 13.5864 6.87656 13.6759 6.99749C13.9495 7.36744 14.3772 7.71416 14.7508 7.8689C14.8862 7.92497 15.0449 7.99615 15.1036 8.02721C15.2681 8.11406 16.3331 8.14484 16.6184 8.07091C16.7545 8.03573 16.9268 7.9923 17.0013 7.97444C17.8576 7.76995 18.7521 6.61628 18.8565 5.58203L18.8827 5.32092H15.9948C14.4064 5.32092 13.095 5.34002 13.0806 5.36339ZM6.33912 10.7585V16.0313L6.95752 16.4979C7.29765 16.7546 7.87277 17.191 8.23557 17.4679C9.64223 18.5411 10.5953 19.2637 10.8476 19.4481C10.9923 19.5539 11.2555 19.7529 11.4322 19.8905C11.6089 20.0279 12.17 20.4562 12.6787 20.8421C14.1965 21.9933 14.2811 22.0579 14.3097 22.0874C14.3248 22.103 14.8814 22.5245 15.5465 23.0238C17.2621 24.3123 17.6865 24.6346 17.7178 24.6727C17.7329 24.6909 17.8438 24.7722 17.9642 24.853L18.1831 25H20.6165C22.0028 25 23.0498 24.979 23.0498 24.9511C23.0498 24.9241 22.2521 24.3045 21.2771 23.5742C20.3021 22.844 19.4667 22.2166 19.4208 22.1802C19.3749 22.1439 19.2388 22.0413 19.1184 21.9521C18.998 21.863 18.8873 21.7765 18.8722 21.7597C18.857 21.7431 18.721 21.6434 18.5698 21.5386C18.2711 21.3312 18.2628 21.3252 18.0201 21.1336C17.8897 21.0307 16.6616 20.1079 14.9693 18.8415C14.8937 18.7849 14.4238 18.4364 13.9249 18.067C13.4261 17.6976 13.0055 17.3796 12.9904 17.3602C12.9753 17.341 12.7898 17.2038 12.5782 17.0554C12.3665 16.9071 12.181 16.7726 12.1659 16.7562C12.1508 16.74 11.7921 16.4672 11.3688 16.1499C10.9456 15.8326 10.5869 15.5591 10.5718 15.5421C10.5567 15.525 10.3724 15.3894 10.1622 15.2406C9.95213 15.0919 9.68346 14.8782 9.56528 14.7658L9.35035 14.5613L9.37014 11.1562C9.38896 7.91053 9.38525 7.7459 9.28864 7.63926C9.23299 7.57769 8.92379 7.33514 8.60153 7.10001C8.2794 6.86502 8.00332 6.65792 7.9882 6.63978C7.97309 6.62164 7.86177 6.53534 7.74084 6.4478C7.24062 6.08582 6.69106 5.67204 6.5906 5.58203C6.32936 5.34786 6.33912 5.14763 6.33912 10.7585ZM6.33912 22.224V24.8351L9.78845 24.8333L13.2378 24.8314L13.1004 24.7191C13.0248 24.6574 12.9129 24.5655 12.8518 24.5149C12.7906 24.4642 12.3954 24.1631 11.9735 23.8456C11.1151 23.1999 11.1037 23.1911 10.8741 23.005C10.7834 22.9315 10.4495 22.6753 10.132 22.4358C9.81456 22.1963 9.28892 21.7971 8.96391 21.5487C7.82646 20.6795 7.24392 20.2358 6.97127 20.031C6.8201 19.9175 6.6354 19.7771 6.56078 19.7188C6.48616 19.6607 6.40577 19.613 6.38213 19.613C6.3585 19.613 6.33912 20.788 6.33912 22.224Z" fill="white"/>
</svg>
