<svg width="353" height="343" viewBox="0 0 353 343" fill="none" xmlns="http://www.w3.org/2000/svg">
<path d="M52.0989 316.086C120.783 351.971 232.14 351.971 300.824 316.086C369.508 280.2 369.516 222.03 300.824 186.144C232.132 150.258 120.783 150.266 52.0907 186.144C-16.6011 222.021 -16.593 280.192 52.0989 316.086Z" fill="#F5F5F5"/>
<path d="M138.885 284.922C157.395 293.744 187.399 293.744 205.869 284.922C224.339 276.099 224.38 261.804 205.869 252.981C187.359 244.159 157.363 244.159 138.885 252.981C120.407 261.804 120.341 276.107 138.885 284.922Z" fill="#EBEBEB"/>
<path d="M299.125 263.086L232.957 301.276C232.409 301.553 231.803 301.698 231.189 301.698C230.574 301.698 229.968 301.553 229.42 301.276L146.711 253.504C146.497 253.432 146.312 253.294 146.181 253.111C146.049 252.928 145.979 252.708 145.979 252.483C145.979 252.258 146.049 252.038 146.181 251.855C146.312 251.672 146.497 251.534 146.711 251.462L212.878 213.273C213.426 212.995 214.032 212.85 214.647 212.85C215.261 212.85 215.867 212.995 216.415 213.273L299.149 261.044C299.362 261.119 299.546 261.259 299.675 261.443C299.804 261.628 299.872 261.849 299.869 262.074C299.866 262.299 299.793 262.518 299.66 262.7C299.526 262.881 299.339 263.016 299.125 263.086Z" fill="#EBEBEB"/>
<path d="M317.538 53.1549V70.6934C317.538 70.6934 310.333 74.0671 297.115 74.0671C283.898 74.0671 276.693 70.6852 276.693 70.6852V53.5306L290.482 14.508C290.294 15.7334 291.013 16.9587 292.631 17.9226C293.814 18.6529 295.159 19.0804 296.547 19.1673C297.934 19.2542 299.322 18.9979 300.587 18.4209C300.943 18.2812 301.287 18.1146 301.617 17.9226C303.332 16.9342 304.067 15.5782 303.732 14.2875L317.538 53.1549Z" fill="#F5F5F5"/>
<path opacity="0.5" d="M317.538 53.1549V70.6934C317.538 70.6934 310.333 74.0671 297.115 74.0671C283.898 74.0671 276.693 70.6852 276.693 70.6852V53.5306L290.482 14.508C290.294 15.7334 291.013 16.9587 292.631 17.9226C293.814 18.6529 295.159 19.0804 296.547 19.1673C297.934 19.2542 299.322 18.9979 300.587 18.4209C300.943 18.2812 301.287 18.1146 301.617 17.9226C303.332 16.9342 304.067 15.5782 303.732 14.2875L317.538 53.1549Z" fill="white"/>
<path d="M315.953 176.096C314.769 177.656 313.268 178.948 311.55 179.886C303.561 184.502 290.613 184.502 282.632 179.886C280.911 178.949 279.407 177.657 278.221 176.096C277.299 174.87 276.754 173.403 276.653 171.873V180.981C276.8 183.889 278.785 186.773 282.632 188.995C290.613 193.602 303.561 193.602 311.55 188.995C315.536 186.691 317.538 183.669 317.538 180.646V171.546C317.507 173.193 316.952 174.787 315.953 176.096Z" fill="#F5F5F5"/>
<path d="M315.953 166.988C314.769 168.548 313.268 169.839 311.55 170.778C311.076 171.048 310.594 171.301 310.096 171.538C302.556 175.132 291.618 175.132 284.086 171.538C283.588 171.301 283.098 171.048 282.632 170.778C280.911 169.84 279.407 168.548 278.221 166.988C277.3 165.765 276.755 164.3 276.653 162.773V171.873C276.754 173.403 277.299 174.87 278.221 176.096C279.407 177.657 280.911 178.949 282.632 179.886C290.613 184.502 303.561 184.502 311.55 179.886C313.268 178.948 314.769 177.656 315.953 176.096C316.952 174.787 317.507 173.193 317.538 171.546V162.438C317.508 164.085 316.953 165.679 315.953 166.988Z" fill="#EBEBEB"/>
<path d="M315.953 157.88C314.768 159.44 313.268 160.734 311.55 161.678C311.076 161.948 310.594 162.193 310.096 162.438C302.556 166.032 291.618 166.032 284.086 162.438C283.588 162.193 283.098 161.948 282.632 161.678C280.912 160.734 279.41 159.44 278.221 157.88C277.3 156.657 276.755 155.192 276.653 153.664V162.773C276.755 164.3 277.3 165.765 278.221 166.988C279.407 168.548 280.911 169.84 282.632 170.778C283.098 171.048 283.588 171.301 284.086 171.538C291.618 175.132 302.556 175.132 310.096 171.538C310.594 171.301 311.076 171.048 311.55 170.778C313.268 169.839 314.769 168.548 315.953 166.988C316.953 165.679 317.508 164.085 317.538 162.438V153.329C317.509 154.977 316.954 156.571 315.953 157.88Z" fill="#F5F5F5"/>
<path d="M276.653 53.498V153.664C276.755 155.192 277.3 156.657 278.221 157.88C279.41 159.44 280.912 160.734 282.632 161.678C283.098 161.948 283.588 162.193 284.086 162.438C286.061 163.358 288.14 164.036 290.278 164.455L286.578 58.8894L276.653 53.498Z" fill="#F5F5F5"/>
<path d="M307.604 58.8894L303.896 164.455C306.033 164.036 308.113 163.358 310.087 162.438C310.586 162.193 311.068 161.948 311.542 161.678C313.259 160.734 314.759 159.44 315.945 157.88C316.945 156.571 317.501 154.977 317.529 153.33V53.1549L307.604 58.8894Z" fill="#F5F5F5"/>
<path d="M276.653 53.498V153.664C276.755 155.192 277.3 156.657 278.221 157.88C279.41 159.44 280.912 160.734 282.632 161.678C283.098 161.948 283.588 162.193 284.086 162.438C286.061 163.358 288.14 164.036 290.278 164.455L286.578 58.8894L276.653 53.498Z" fill="#E0E0E0"/>
<path d="M307.604 58.8894L303.896 164.455C306.033 164.036 308.113 163.358 310.087 162.438C310.586 162.193 311.068 161.948 311.542 161.678C313.259 160.734 314.759 159.44 315.945 157.88C316.945 156.571 317.501 154.977 317.529 153.33V53.1549L307.604 58.8894Z" fill="#E0E0E0"/>
<path d="M286.578 58.8894V163.451C287.788 163.869 289.024 164.207 290.278 164.464C292.521 164.917 294.803 165.144 297.091 165.142C299.379 165.14 301.661 164.913 303.904 164.464C305.158 164.207 306.394 163.869 307.604 163.451V58.8894H286.578Z" fill="#EBEBEB"/>
<path d="M301.584 17.8818C301.254 18.0738 300.91 18.2404 300.554 18.3801C299.289 18.9571 297.902 19.2134 296.514 19.1265C295.126 19.0396 293.781 18.6121 292.598 17.8818C290.964 16.9506 290.262 15.6926 290.45 14.4672L295.155 1.29088C295.31 0.905574 295.578 0.576112 295.923 0.345766C296.269 0.11542 296.676 -0.00504203 297.091 0.000198257C297.507 -0.00556809 297.916 0.114572 298.263 0.344881C298.609 0.575189 298.879 0.904925 299.035 1.29088L303.691 14.2303C304.01 15.521 303.299 16.8934 301.584 17.8818Z" fill="#E0E0E0"/>
<path d="M311.55 188.995C304.688 192.957 294.166 193.504 286.275 190.628C285.834 190.476 285.401 190.304 284.976 190.114L284.388 189.869C283.776 189.591 283.187 189.289 282.632 188.97C278.784 186.748 276.799 183.865 276.652 180.957V205.774C276.505 208.91 278.49 212.072 282.632 214.457C283.122 214.743 283.637 215.012 284.168 215.274C284.364 215.372 284.576 215.445 284.772 215.535C285.115 215.682 285.45 215.838 285.802 215.968C286.153 216.099 286.349 216.164 286.618 216.254C286.888 216.344 287.198 216.467 287.501 216.556C287.803 216.646 288.17 216.744 288.505 216.834C288.84 216.924 289.02 216.981 289.281 217.038C289.543 217.096 290.057 217.21 290.45 217.283C290.67 217.283 290.891 217.381 291.111 217.414C291.552 217.496 292.002 217.553 292.451 217.618L292.982 217.692C293.48 217.749 293.979 217.79 294.477 217.823H294.869C295.416 217.863 295.964 217.88 296.503 217.888H296.764C297.352 217.888 297.94 217.888 298.529 217.888H298.659C299.28 217.888 299.901 217.814 300.522 217.757C304.16 217.448 307.704 216.433 310.953 214.767C311.133 214.669 311.321 214.588 311.501 214.482C315.487 212.178 317.488 209.155 317.488 206.133V180.646C317.537 183.669 315.536 186.691 311.55 188.995Z" fill="#E0E0E0"/>
<path d="M64.9404 203.47C62.5796 202.874 49.975 195.701 48.6925 194.827C47.41 193.953 44.8777 192.148 44.8777 189.036C44.8777 186.283 45.1636 160.322 47.4182 147.783C48.1589 143.882 49.6896 140.174 51.9162 136.887C54.1429 133.6 57.0183 130.803 60.3658 128.668C68.2079 123.807 76.0909 120.287 82.7321 123.048C89.3734 125.809 95.4347 130.882 98.0487 137.008C100.663 143.135 102.452 155.404 102.64 160.151C102.828 164.897 102.64 181.169 102.64 182.615C102.64 184.061 102.378 185.94 94.5933 190.784C86.8084 195.628 76.0582 201.403 72.7335 202.898C70.2605 203.903 67.5336 204.103 64.9404 203.47Z" fill="#37474F"/>
<path d="M62.9961 132.041C62.2773 132.45 60.2024 131.429 59.892 130.914C59.5816 130.4 59.4999 125.948 61.052 123.489C62.604 121.03 72.2841 116.496 74.6776 116.831C75.5741 116.977 76.4313 117.304 77.1968 117.793C77.9623 118.282 78.62 118.922 79.1296 119.674C79.4237 120.303 79.7505 124.444 79.1296 125.294C78.5088 126.144 76.295 124.837 76.099 124.477C75.9029 124.118 76.826 121.087 75.2821 120.458C73.8607 119.886 67.1132 122.753 64.3685 125.057C63.1759 126.062 63.233 128.553 63.2902 129.787C63.3474 131.02 63.3556 131.829 62.9961 132.041Z" fill="#455A64"/>
<path d="M61.0519 161.27C62.4406 147.783 64.9403 139.908 78.133 134.035C91.3257 128.161 96.4476 133.161 98.3182 137.662C100.769 143.968 102.46 155.568 102.64 160.15C102.827 164.897 102.64 181.169 102.64 182.615C102.64 184.061 102.378 185.94 94.5932 190.784C86.8083 195.628 76.0581 201.403 72.7334 202.898C70.2631 203.912 67.5361 204.12 64.9403 203.494C64.419 203.336 63.9109 203.136 63.4209 202.898C59.312 197.621 59.7776 173.588 61.0519 161.27Z" fill="#455A64"/>
<path d="M91.8076 128.766C88.3604 126.748 82.7075 125.417 74.408 129.117C59.5733 135.726 55.8075 144.001 54.3126 158.525C54.043 161.188 53.6428 164.357 53.4957 167.764L52.2704 167.021C52.4419 163.345 52.8014 160.2 53.0873 157.357C54.721 142.726 59.1077 134.639 73.2807 128.325C81.1309 124.828 86.2855 125.286 89.7001 127.01C90.4333 127.557 91.1369 128.143 91.8076 128.766Z" fill="#263238"/>
<path d="M92.3224 129.142C88.8833 127.124 83.2223 125.792 74.9309 129.493C60.0881 136.101 56.3223 144.376 54.8274 158.901C54.5578 161.564 54.1575 164.733 54.0105 168.14L52.7852 167.396C52.9567 163.72 53.3161 160.575 53.602 157.733C55.2358 143.102 59.6225 135.007 73.7954 128.7C81.6457 125.204 86.9391 125.784 90.3537 127.5C91.0403 128.009 91.6975 128.558 92.3224 129.142Z" fill="#455A64"/>
<path d="M87.519 141.967L83.0343 139.402C82.813 139.277 82.5517 139.246 82.307 139.313C82.0623 139.38 81.854 139.541 81.7273 139.761L77.1282 147.758C77.0001 147.978 76.9642 148.24 77.0285 148.487C77.0928 148.733 77.252 148.944 77.4713 149.074L81.8989 151.655C82.1189 151.783 82.3808 151.819 82.6272 151.755C82.8736 151.69 83.0846 151.531 83.214 151.312L87.8703 143.266C87.9341 143.158 87.9757 143.038 87.9926 142.914C88.0095 142.789 88.0013 142.663 87.9686 142.542C87.9358 142.421 87.8792 142.308 87.802 142.209C87.7248 142.11 87.6286 142.028 87.519 141.967Z" fill="#263238"/>
<path d="M82.7075 150.74L87.1269 143.118C87.1587 143.064 87.1793 143.004 87.1875 142.941C87.1957 142.878 87.1913 142.815 87.1746 142.754C87.1578 142.693 87.1291 142.636 87.09 142.586C87.051 142.537 87.0024 142.496 86.9472 142.465L82.8627 140.145C82.7521 140.083 82.6214 140.067 82.4991 140.101C82.3767 140.134 82.2726 140.215 82.2092 140.325L77.8389 147.914C77.7768 148.024 77.7608 148.155 77.7945 148.277C77.8281 148.4 77.9087 148.504 78.0186 148.567L82.0295 150.912C82.0848 150.947 82.1467 150.97 82.2113 150.98C82.2759 150.99 82.3419 150.988 82.4054 150.971C82.4688 150.955 82.5283 150.927 82.5803 150.887C82.6322 150.847 82.6755 150.797 82.7075 150.74Z" fill="#455A64"/>
<path d="M83.6551 147.097C83.7729 147.025 83.8725 146.928 83.9462 146.812C84.0199 146.695 84.0657 146.564 84.0799 146.427V142.775C84.0799 142.538 83.892 142.465 83.6551 142.596C83.5374 142.667 83.4377 142.764 83.364 142.881C83.2903 142.997 83.2446 143.129 83.2303 143.265V146.917C83.2303 147.154 83.4182 147.227 83.6551 147.097Z" fill="#37474F"/>
<path d="M81.2862 148.469C81.4038 148.396 81.5031 148.296 81.5767 148.179C81.6502 148.061 81.6962 147.929 81.711 147.791V144.148C81.711 143.911 81.515 143.829 81.2862 143.968C81.1676 144.038 81.0673 144.136 80.9935 144.252C80.9197 144.368 80.8744 144.501 80.8615 144.638V148.289C80.886 148.518 81.0493 148.6 81.2862 148.469Z" fill="#37474F"/>
<path d="M67.1623 172.673C67.1623 172.673 69.3842 174.503 70.9853 181.398C72.5864 188.292 73.5503 196.976 71.8022 198.021C70.054 199.067 67.5299 196.878 66.9009 196.126C65.6102 194.582 65.9288 178.195 67.1623 172.673Z" fill="#263238"/>
<path d="M67.1622 172.673C67.1622 172.673 69.3842 174.503 70.9853 181.398C72.5863 188.292 73.5503 196.976 71.8021 198.021L98.7593 182.125C100.524 181.079 100.957 171.954 99.3638 165.06C98.3101 160.526 96.374 158.37 95.1814 157.422C94.9078 157.211 94.5772 157.086 94.2321 157.064C93.8871 157.042 93.5434 157.124 93.2454 157.3L67.1622 172.673Z" fill="#37474F"/>
<path d="M94.6259 158.476C95.9166 159.113 98.1058 160.869 99.0943 165.534C99.2609 166.169 99.2459 166.838 99.051 167.464C98.856 168.091 98.4889 168.651 97.9915 169.079C97.0929 169.716 77.7981 180.687 75.2412 182.215C73.0356 183.53 71.892 181.782 71.41 180.687C70.5932 178.743 69.8906 177.232 69.2861 176.072C68.8246 174.807 68.104 173.652 67.1704 172.682L92.8778 158.549C93.1409 158.395 93.4379 158.307 93.7427 158.295C94.0475 158.282 94.3508 158.344 94.6259 158.476Z" fill="#263238"/>
<path d="M54.329 168.899C54.7024 170.304 54.9457 171.739 55.056 173.188C55.056 173.482 54.6558 173.637 54.5414 173.637C53.6072 173.449 52.7426 173.009 52.0417 172.363C52.1727 171.128 52.3966 169.905 52.7116 168.703L54.329 168.899Z" fill="#263238"/>
<path d="M55.1623 167.748C55.1623 167.439 55.0707 167.137 54.8993 166.881C54.7279 166.624 54.4842 166.424 54.1991 166.306C53.914 166.188 53.6003 166.157 53.2976 166.217C52.995 166.277 52.7169 166.426 52.4987 166.644C52.2805 166.862 52.1319 167.14 52.0717 167.443C52.0115 167.746 52.0424 168.06 52.1605 168.345C52.2786 168.63 52.4786 168.873 52.7352 169.045C52.9918 169.216 53.2934 169.308 53.602 169.308C54.0158 169.308 54.4127 169.143 54.7053 168.851C54.9979 168.558 55.1623 168.161 55.1623 167.748Z" fill="#263238"/>
<path d="M74.6776 120.385C76.3849 120.221 77.9942 120.385 78.4026 122.092C78.8111 123.799 78.664 125.359 78.4026 125.572C77.5376 125.462 76.7303 125.079 76.099 124.477C75.9029 124.11 76.826 121.087 75.2821 120.458C75.0928 120.395 74.8929 120.37 74.6939 120.385H74.6776Z" fill="#263238"/>
<path d="M93.4088 157.21C93.6728 157.054 93.9713 156.966 94.2777 156.953C94.5841 156.94 94.8889 157.003 95.165 157.136C96.4557 157.773 98.645 159.53 99.6334 164.194C99.7991 164.829 99.7836 165.498 99.5887 166.124C99.3938 166.751 99.0273 167.31 98.5306 167.739C97.632 168.377 78.3454 179.347 75.7885 180.875C73.583 182.19 72.4311 180.442 71.9492 179.347C69.278 173.76 67.1622 172.673 67.1622 172.673L93.4088 157.21Z" fill="#37474F"/>
<path d="M104.02 25.8873L95.2386 30.952C95.2872 30.5672 95.3118 30.1798 95.3121 29.792V27.2515C95.3121 22.7259 92.1344 20.8879 88.2215 23.167C86.5299 24.2034 85.0856 25.5975 83.9901 27.2515C83.3447 21.5333 78.8845 19.442 73.4604 22.5707C67.5952 25.9608 62.8409 34.195 62.8409 40.9588V44.7655C62.8035 46.2849 63.1107 47.793 63.7395 49.1767L56.4447 53.3836C55.2991 54.1317 54.3457 55.139 53.6617 56.324C52.9776 57.509 52.5822 58.8384 52.5073 60.2046C52.5073 62.7124 54.2718 63.7336 56.4447 62.4755L104.02 35.0119C105.166 34.2638 106.119 33.2564 106.803 32.0715C107.487 30.8865 107.883 29.5571 107.957 28.1909C107.957 25.6504 106.209 24.6293 104.02 25.8873Z" fill="#F0F0F0"/>
<path d="M286.471 254.141L284.838 253.218L285.998 252.695C285.998 252.695 286.904 252.94 286.929 252.981C286.921 253.192 286.9 253.402 286.864 253.61L286.471 254.141Z" fill="#E0E0E0"/>
<path d="M286.471 254.141L284.838 253.218L285.998 252.695C285.998 252.695 286.904 252.94 286.929 252.981C286.921 253.192 286.9 253.402 286.864 253.61L286.471 254.141Z" fill="#42E2B8"/>
<path opacity="0.1" d="M286.471 254.141L284.838 253.218L285.998 252.695C285.998 252.695 286.904 252.94 286.929 252.981C286.921 253.192 286.9 253.402 286.864 253.61L286.471 254.141Z" fill="white"/>
<path d="M225.679 284.766C226.403 285.133 227.203 285.324 228.015 285.324C228.827 285.324 229.627 285.133 230.351 284.766L282.746 254.542L204.325 209.253L202.496 208.2L150.101 238.424C148.818 239.168 148.818 240.385 150.101 241.12L225.679 284.766Z" fill="#42E2B8"/>
<path opacity="0.8" d="M225.679 284.766C226.403 285.133 227.203 285.324 228.015 285.324C228.827 285.324 229.627 285.133 230.351 284.766L282.746 254.542L204.325 209.253L202.496 208.2L150.101 238.424C148.818 239.168 148.818 240.385 150.101 241.12L225.679 284.766Z" fill="white"/>
<path d="M245.357 227.617L263.631 238.13L275.46 231.301L289.192 239.258V249.15C289.192 250.351 287.844 252.058 287.354 251.78C286.447 252 285.566 252.312 284.723 252.712C283.349 253.493 282.074 254.436 280.925 255.522L238.937 231.285L245.357 227.617Z" fill="#E0E0E0"/>
<path d="M245.357 227.617L263.631 238.13L275.46 231.301L289.192 239.258V249.15C289.192 250.351 287.844 252.058 287.354 251.78C286.447 252 285.566 252.312 284.723 252.712C283.349 253.493 282.074 254.436 280.925 255.522L238.937 231.285L245.357 227.617Z" fill="#42E2B8"/>
<path opacity="0.1" d="M245.357 227.617L263.631 238.13L275.46 231.301L289.192 239.258V249.15C289.192 250.351 287.844 252.058 287.354 251.78C286.447 252 285.566 252.312 284.723 252.712C283.349 253.493 282.074 254.436 280.925 255.522L238.937 231.285L245.357 227.617Z" fill="white"/>
<path d="M230.376 284.758L233.537 282.928L280.974 255.546C281.01 254.927 281.235 254.334 281.619 253.847C282.179 253.103 282.885 252.48 283.694 252.017C284.371 251.603 285.14 251.364 285.932 251.323C286.462 251.316 286.98 251.485 287.403 251.805C288.02 250.593 288.321 249.244 288.277 247.884H290.074C290.074 250.335 289.257 252.851 288.252 253.422L287.346 253.953C286.831 254.247 286.422 254.264 286.422 253.953V253.471C286.422 252.932 285.606 252.957 284.593 253.545C283.58 254.133 282.771 255.032 282.771 255.571V256.061C282.771 256.339 282.068 256.959 281.219 257.45L235.343 283.941L230.376 286.8C229.657 287.172 228.857 287.36 228.048 287.348V285.273C228.855 285.306 229.658 285.128 230.376 284.758Z" fill="#42E2B8"/>
<path opacity="0.6" d="M230.376 284.758L233.537 282.928L280.974 255.546C281.01 254.927 281.235 254.334 281.619 253.847C282.179 253.103 282.885 252.48 283.694 252.017C284.371 251.603 285.14 251.364 285.932 251.323C286.462 251.316 286.98 251.485 287.403 251.805C288.02 250.593 288.321 249.244 288.277 247.884H290.074C290.074 250.335 289.257 252.851 288.252 253.422L287.346 253.953C286.831 254.247 286.422 254.264 286.422 253.953V253.471C286.422 252.932 285.606 252.957 284.593 253.545C283.58 254.133 282.771 255.032 282.771 255.571V256.061C282.771 256.339 282.068 256.959 281.219 257.45L235.343 283.941L230.376 286.8C229.657 287.172 228.857 287.36 228.048 287.348V285.273C228.855 285.306 229.658 285.128 230.376 284.758Z" fill="white"/>
<path d="M149.12 239.731V241.847C149.147 242.13 149.247 242.4 149.411 242.632C149.574 242.864 149.795 243.05 150.052 243.17L220.688 283.949L225.646 286.808C226.365 287.18 227.165 287.368 227.974 287.356V285.281C227.16 285.3 226.354 285.106 225.638 284.717L222.485 282.896L150.052 241.063C149.794 240.941 149.572 240.755 149.409 240.521C149.245 240.288 149.146 240.015 149.12 239.731Z" fill="#42E2B8"/>
<path opacity="0.1" d="M149.12 239.731V241.847C149.147 242.13 149.247 242.4 149.411 242.632C149.574 242.864 149.795 243.05 150.052 243.17L220.688 283.949L225.646 286.808C226.365 287.18 227.165 287.368 227.974 287.356V285.281C227.16 285.3 226.354 285.106 225.638 284.717L222.485 282.896L150.052 241.063C149.794 240.941 149.572 240.755 149.409 240.521C149.245 240.288 149.146 240.015 149.12 239.731Z" fill="white"/>
<path d="M228.015 271.337V283.459C228.556 283.475 229.091 283.349 229.567 283.092L235.285 279.775L279.062 254.501V241.855L228.015 271.337Z" fill="white"/>
<path d="M151.399 228.614V237.934C151.428 238.474 151.584 238.999 151.853 239.468C152.123 239.936 152.499 240.334 152.951 240.63L220.753 279.759L226.471 283.075C226.948 283.331 227.483 283.458 228.023 283.443V272.619L151.399 228.614Z" fill="#F0F0F0"/>
<path d="M279.095 254.484C279.138 253.864 279.369 253.272 279.757 252.785C280.319 252.045 281.025 251.426 281.832 250.964C282.503 250.543 283.271 250.301 284.062 250.261C284.594 250.257 285.113 250.426 285.54 250.743V238.122L279.111 241.839L279.095 254.484Z" fill="#455A64"/>
<path d="M281.668 251.07C280.924 251.509 280.274 252.093 279.757 252.785C279.369 253.272 279.138 253.864 279.095 254.484V242.427H281.66L281.668 251.07Z" fill="#F5F5F5"/>
<path d="M204.309 194.419L282.73 239.707V240.761C282.73 241.341 283.547 241.578 284.552 240.973C285.556 240.369 286.382 239.666 286.382 238.661L286.48 237.665L206.564 191.527L206.245 191.339C206.162 191.487 206.114 191.652 206.106 191.821V192.311C206.123 192.916 205.314 193.855 204.309 194.419Z" fill="#42E2B8"/>
<path opacity="0.6" d="M204.309 194.419L282.73 239.707V240.761C282.73 241.341 283.547 241.578 284.552 240.973C285.556 240.369 286.382 239.666 286.382 238.661L286.48 237.665L206.564 191.527L206.245 191.339C206.162 191.487 206.114 191.652 206.106 191.821V192.311C206.123 192.916 205.314 193.855 204.309 194.419Z" fill="white"/>
<path d="M230.376 269.989L281.611 240.401C282.256 240.066 282.853 239.789 283.106 239.919L282.771 239.731L204.35 194.443L203.435 193.912C203.024 193.795 202.593 193.768 202.17 193.831C201.747 193.894 201.343 194.047 200.984 194.28L150.15 223.639C148.867 224.382 148.867 225.591 150.15 226.334L225.744 269.989C226.463 270.349 227.256 270.536 228.06 270.536C228.864 270.536 229.657 270.349 230.376 269.989Z" fill="#42E2B8"/>
<path opacity="0.8" d="M230.376 269.989L281.611 240.401C282.256 240.066 282.853 239.789 283.106 239.919L282.771 239.731L204.35 194.443L203.435 193.912C203.024 193.795 202.593 193.768 202.17 193.831C201.747 193.894 201.343 194.047 200.984 194.28L150.15 223.639C148.867 224.382 148.867 225.591 150.15 226.334L225.744 269.989C226.463 270.349 227.256 270.536 228.06 270.536C228.864 270.536 229.657 270.349 230.376 269.989Z" fill="white"/>
<path d="M206.261 191.364L206.58 191.552L286.496 237.714C286.536 237.629 286.595 237.553 286.667 237.493L286.937 237.338L287.517 237.011L288.228 236.595C288.366 236.503 288.531 236.461 288.695 236.476C288.86 236.491 289.015 236.561 289.134 236.676C289.168 236.699 289.199 236.726 289.224 236.758C289.321 236.856 289.401 236.969 289.461 237.093C289.548 237.234 289.619 237.385 289.674 237.542C289.736 237.71 289.788 237.882 289.829 238.057C289.878 238.261 289.91 238.457 289.951 238.669C289.973 238.791 289.987 238.914 289.992 239.037C289.992 239.135 289.992 239.225 289.992 239.339C289.992 239.454 289.992 239.797 289.992 240.034V237.787C289.908 237.049 289.653 236.341 289.247 235.718C288.842 235.096 288.297 234.577 287.656 234.201L212.053 190.547C211.43 190.179 210.731 189.961 210.01 189.908C209.288 189.856 208.565 189.971 207.895 190.245L206.939 190.8L206.531 191.029C206.413 191.114 206.32 191.23 206.261 191.364Z" fill="#42E2B8"/>
<path opacity="0.8" d="M206.261 191.364L206.58 191.552L286.496 237.714C286.536 237.629 286.595 237.553 286.667 237.493L286.937 237.338L287.517 237.011L288.228 236.595C288.366 236.503 288.531 236.461 288.695 236.476C288.86 236.491 289.015 236.561 289.134 236.676C289.168 236.699 289.199 236.726 289.224 236.758C289.321 236.856 289.401 236.969 289.461 237.093C289.548 237.234 289.619 237.385 289.674 237.542C289.736 237.71 289.788 237.882 289.829 238.057C289.878 238.261 289.91 238.457 289.951 238.669C289.973 238.791 289.987 238.914 289.992 239.037C289.992 239.135 289.992 239.225 289.992 239.339C289.992 239.454 289.992 239.797 289.992 240.034V237.787C289.908 237.049 289.653 236.341 289.247 235.718C288.842 235.096 288.297 234.577 287.656 234.201L212.053 190.547C211.43 190.179 210.731 189.961 210.01 189.908C209.288 189.856 208.565 189.971 207.895 190.245L206.939 190.8L206.531 191.029C206.413 191.114 206.32 191.23 206.261 191.364Z" fill="white"/>
<path d="M230.376 269.997L233.545 268.159L269.987 247.132L281.619 240.418C282.436 239.927 283.122 239.756 283.163 240.009V240.532C283.163 241.12 283.98 241.12 284.985 240.532C285.357 240.37 285.684 240.118 285.935 239.799C286.186 239.479 286.353 239.102 286.422 238.702V238.13C286.41 238.003 286.429 237.874 286.475 237.755C286.522 237.636 286.596 237.529 286.692 237.444L286.962 237.289L287.542 236.962L288.252 236.546C288.39 236.454 288.555 236.412 288.72 236.427C288.885 236.442 289.04 236.512 289.159 236.627C289.193 236.65 289.223 236.677 289.249 236.709C289.31 236.773 289.362 236.844 289.404 236.921C289.439 236.957 289.466 236.998 289.486 237.044C289.573 237.185 289.644 237.336 289.698 237.493C289.761 237.661 289.812 237.833 289.853 238.008C289.902 238.212 289.935 238.408 289.976 238.62C289.998 238.742 290.012 238.865 290.017 238.988C290.017 239.086 290.017 239.176 290.017 239.29C290.017 239.405 290.017 239.748 290.017 239.985V247.859H288.22V239.985C288.22 239.797 288.22 239.609 288.22 239.429L288.171 238.98C288.174 238.967 288.174 238.952 288.171 238.939C288.007 240.369 286.643 241.643 285.458 242.313C284.801 242.728 284.046 242.964 283.269 242.999C282.67 243.007 282.089 242.794 281.635 242.403L281.472 242.492L281.162 242.68L235.285 269.172L230.376 272.064C229.669 272.426 228.883 272.608 228.089 272.595V270.52C228.882 270.537 229.668 270.357 230.376 269.997Z" fill="#42E2B8"/>
<path opacity="0.6" d="M230.376 269.997L233.545 268.159L269.987 247.132L281.619 240.418C282.436 239.927 283.122 239.756 283.163 240.009V240.532C283.163 241.12 283.98 241.12 284.985 240.532C285.357 240.37 285.684 240.118 285.935 239.799C286.186 239.479 286.353 239.102 286.422 238.702V238.13C286.41 238.003 286.429 237.874 286.475 237.755C286.522 237.636 286.596 237.529 286.692 237.444L286.962 237.289L287.542 236.962L288.252 236.546C288.39 236.454 288.555 236.412 288.72 236.427C288.885 236.442 289.04 236.512 289.159 236.627C289.193 236.65 289.223 236.677 289.249 236.709C289.31 236.773 289.362 236.844 289.404 236.921C289.439 236.957 289.466 236.998 289.486 237.044C289.573 237.185 289.644 237.336 289.698 237.493C289.761 237.661 289.812 237.833 289.853 238.008C289.902 238.212 289.935 238.408 289.976 238.62C289.998 238.742 290.012 238.865 290.017 238.988C290.017 239.086 290.017 239.176 290.017 239.29C290.017 239.405 290.017 239.748 290.017 239.985V247.859H288.22V239.985C288.22 239.797 288.22 239.609 288.22 239.429L288.171 238.98C288.174 238.967 288.174 238.952 288.171 238.939C288.007 240.369 286.643 241.643 285.458 242.313C284.801 242.728 284.046 242.964 283.269 242.999C282.67 243.007 282.089 242.794 281.635 242.403L281.472 242.492L281.162 242.68L235.285 269.172L230.376 272.064C229.669 272.426 228.883 272.608 228.089 272.595V270.52C228.882 270.537 229.668 270.357 230.376 269.997Z" fill="white"/>
<path d="M149.12 224.962V227.094C149.146 227.378 149.245 227.65 149.409 227.884C149.572 228.117 149.794 228.304 150.052 228.426L220.688 269.205L225.646 272.072C226.365 272.444 227.165 272.632 227.974 272.619V270.544C227.161 270.562 226.356 270.371 225.638 269.989L222.485 268.167L150.052 226.334C149.788 226.21 149.563 226.017 149.399 225.775C149.235 225.534 149.139 225.253 149.12 224.962Z" fill="#42E2B8"/>
<path opacity="0.1" d="M149.12 224.962V227.094C149.146 227.378 149.245 227.65 149.409 227.884C149.572 228.117 149.794 228.304 150.052 228.426L220.688 269.205L225.646 272.072C226.365 272.444 227.165 272.632 227.974 272.619V270.544C227.161 270.562 226.356 270.371 225.638 269.989L222.485 268.167L150.052 226.334C149.788 226.21 149.563 226.017 149.399 225.775C149.235 225.534 149.139 225.253 149.12 224.962Z" fill="white"/>
<path d="M200.919 194.28C201.278 194.047 201.682 193.894 202.105 193.831C202.527 193.768 202.959 193.795 203.37 193.912L204.285 194.443C205.289 193.855 206.098 192.916 206.098 192.336V191.846C206.106 191.676 206.154 191.511 206.237 191.364C206.301 191.231 206.4 191.118 206.523 191.037L206.931 190.808L207.887 190.253C208.557 189.979 209.28 189.864 210.002 189.916C210.723 189.969 211.422 190.187 212.045 190.555L287.648 234.209L287.73 234.258L234.379 265.063C233.897 265.309 233.364 265.437 232.823 265.437C232.282 265.437 231.748 265.309 231.266 265.063L155.174 220.698L200.919 194.28Z" fill="#263238"/>
<path d="M238.651 260.586L236.633 259.426C237.176 259.238 237.76 259.195 238.324 259.304C238.863 259.582 238.651 260.586 238.651 260.586Z" fill="#42E2B8"/>
<path opacity="0.7" d="M238.651 260.586L236.633 259.426C237.176 259.238 237.76 259.195 238.324 259.304C238.863 259.582 238.651 260.586 238.651 260.586Z" fill="black"/>
<path d="M240.04 259.337C239.81 259.088 239.532 258.889 239.221 258.754C238.911 258.618 238.577 258.548 238.238 258.548C237.9 258.548 237.565 258.618 237.255 258.754C236.945 258.889 236.667 259.088 236.437 259.337C234.468 261.142 234.37 262.931 233.553 262.906C232.737 262.882 232.737 248.488 232.737 248.488L240.505 255.685L240.04 259.337Z" fill="#42E2B8"/>
<path opacity="0.7" d="M240.04 259.337C239.81 259.088 239.532 258.889 239.221 258.754C238.911 258.618 238.577 258.548 238.238 258.548C237.9 258.548 237.565 258.618 237.255 258.754C236.945 258.889 236.667 259.088 236.437 259.337C234.468 261.142 234.37 262.931 233.553 262.906C232.737 262.882 232.737 248.488 232.737 248.488L240.505 255.685L240.04 259.337Z" fill="black"/>
<path d="M158.825 207.015L158.694 206.942L159.936 206.223L213.425 175.345L291.364 225.779C292.647 226.522 292.876 227.601 291.871 228.172L290.049 229.226L240.056 258.136L239.696 257.874L158.825 207.015Z" fill="#42E2B8"/>
<path opacity="0.5" d="M158.825 207.015L158.694 206.942L159.936 206.223L213.425 175.345L291.364 225.779C292.647 226.522 292.876 227.601 291.871 228.172L290.049 229.226L240.056 258.136L239.696 257.874L158.825 207.015Z" fill="black"/>
<path d="M233.382 241.676L237.254 240.859V256.379C234.918 257.376 233.431 258.307 233.17 260.26L233.382 241.676Z" fill="#455A64"/>
<path d="M238.961 256.584L288.489 227.993C288.943 227.698 289.321 227.3 289.592 226.832C289.863 226.363 290.02 225.837 290.049 225.297V210.013L240.04 239.135C240.04 239.135 239.443 241.3 237.671 241.978C235.898 242.656 237.254 243.35 237.254 243.35V256.42C238.782 256.2 238.961 256.584 238.961 256.584Z" fill="#F0F0F0"/>
<path d="M234.395 241.145C234.91 240.851 235.318 240.834 235.318 241.145V241.627C235.318 242.166 236.135 242.141 237.148 241.553C238.161 240.965 238.978 240.066 238.978 239.527V239.037C238.978 238.759 239.672 238.138 240.522 237.648L159.944 191.478L158.694 192.197C158.521 192.381 158.412 192.616 158.384 192.867V193.357C158.384 193.896 157.567 194.803 156.562 195.383C155.557 195.963 154.732 195.995 154.732 195.456V194.966C154.732 194.688 154.324 194.713 153.817 195.007L234.395 241.145Z" fill="#42E2B8"/>
<path opacity="0.6" d="M234.395 241.145C234.91 240.851 235.318 240.834 235.318 241.145V241.627C235.318 242.166 236.135 242.141 237.148 241.553C238.161 240.965 238.978 240.066 238.978 239.527V239.037C238.978 238.759 239.672 238.138 240.522 237.648L159.944 191.478L158.694 192.197C158.521 192.381 158.412 192.616 158.384 192.867V193.357C158.384 193.896 157.567 194.803 156.562 195.383C155.557 195.963 154.732 195.995 154.732 195.456V194.966C154.732 194.688 154.324 194.713 153.817 195.007L234.395 241.145Z" fill="black"/>
<path d="M158.825 192.238L158.694 192.164L159.936 191.445L213.425 160.567L291.364 205.577C292.647 206.321 292.876 207.391 291.871 207.971L290.049 209.016L240.039 239.135L158.825 192.238Z" fill="#42E2B8"/>
<path opacity="0.5" d="M158.825 192.238L158.694 192.164L159.936 191.445L213.425 160.567L291.364 205.577C292.647 206.321 292.876 207.391 291.871 207.971L290.049 209.016L240.039 239.135L158.825 192.238Z" fill="black"/>
<path d="M154.716 194.468L235.277 240.981L232.459 243.187L152.2 196.853C152.396 196.257 152.769 195.736 153.27 195.358L154.716 194.468Z" fill="#42E2B8"/>
<path opacity="0.5" d="M154.716 194.468L235.277 240.981L232.459 243.187L152.2 196.853C152.396 196.257 152.769 195.736 153.27 195.358L154.716 194.468Z" fill="black"/>
<path d="M152.469 217.643C152.42 217.612 152.373 217.576 152.331 217.537C152.294 217.518 152.262 217.49 152.241 217.455C152.175 217.391 152.12 217.316 152.077 217.234C152.041 217.203 152.013 217.164 151.996 217.12C151.908 216.98 151.84 216.829 151.791 216.671C151.724 216.501 151.669 216.326 151.628 216.148C151.579 215.952 151.546 215.756 151.514 215.543C151.485 215.423 151.469 215.3 151.465 215.176V214.874C151.465 214.653 151.465 214.416 151.465 214.179V200.872C151.45 199.475 151.705 198.088 152.216 196.788L232.475 243.121L232.81 263.968L152.559 217.618L152.469 217.643Z" fill="#42E2B8"/>
<path opacity="0.7" d="M152.469 217.643C152.42 217.612 152.373 217.576 152.331 217.537C152.294 217.518 152.262 217.49 152.241 217.455C152.175 217.391 152.12 217.316 152.077 217.234C152.041 217.203 152.013 217.164 151.996 217.12C151.908 216.98 151.84 216.829 151.791 216.671C151.724 216.501 151.669 216.326 151.628 216.148C151.579 215.952 151.546 215.756 151.514 215.543C151.485 215.423 151.469 215.3 151.465 215.176V214.874C151.465 214.653 151.465 214.416 151.465 214.179V200.872C151.45 199.475 151.705 198.088 152.216 196.788L232.475 243.121L232.81 263.968L152.559 217.618L152.469 217.643Z" fill="black"/>
<path opacity="0.79" d="M232.418 243.154C232.418 243.154 169.207 213.575 163.457 210.863C159.658 209.074 157.796 212.831 158.694 216.72C159.511 220.118 162.836 223.622 162.836 223.622L152.502 217.651C152.453 217.62 152.406 217.585 152.363 217.545C152.326 217.527 152.295 217.498 152.273 217.463C152.208 217.399 152.152 217.324 152.11 217.243C152.074 217.212 152.046 217.172 152.028 217.128C151.941 216.988 151.872 216.837 151.824 216.679C151.756 216.509 151.702 216.334 151.661 216.156C151.612 215.96 151.579 215.764 151.546 215.552C151.518 215.431 151.502 215.308 151.497 215.184V214.882C151.497 214.661 151.497 214.424 151.497 214.187V200.872C151.483 199.475 151.738 198.088 152.249 196.788L232.418 243.154Z" fill="#263238"/>
<path d="M231.675 247.214H233.472C233.43 245.855 233.727 244.508 234.338 243.293C234.765 243.61 235.284 243.779 235.816 243.775C236.608 243.735 237.375 243.493 238.047 243.072C238.855 242.613 239.561 241.993 240.121 241.251C240.164 241.2 240.202 241.145 240.236 241.087C240.553 240.635 240.737 240.103 240.767 239.552L288.203 212.17L289.837 211.23L291.896 210.046C292.075 209.964 292.228 209.835 292.339 209.672C292.45 209.509 292.514 209.319 292.525 209.123V207.023C292.516 207.224 292.452 207.417 292.342 207.584C292.231 207.751 292.077 207.885 291.896 207.971L286.447 211.108L240.579 237.599C239.721 238.089 239.027 238.71 239.027 238.988V239.478C238.976 239.789 238.827 240.075 238.602 240.295C238.208 240.769 237.732 241.167 237.197 241.471C236.184 242.06 235.367 242.084 235.367 241.545V241.063C235.367 240.777 234.967 240.802 234.452 241.063L233.545 241.594C232.492 242.247 231.675 244.739 231.675 247.214Z" fill="#42E2B8"/>
<path d="M233.472 247.214V260.521C233.472 260.709 233.472 260.897 233.472 261.077L233.513 261.526C233.509 261.539 233.509 261.553 233.513 261.567C233.676 260.137 235.04 258.863 236.225 258.193C236.885 257.777 237.643 257.54 238.422 257.507C239.021 257.499 239.603 257.711 240.056 258.103L240.211 258.013L240.53 257.825L286.398 231.334L289.036 229.814L289.788 229.373L292.01 228.091C292.156 227.999 292.277 227.873 292.363 227.723C292.448 227.574 292.495 227.405 292.5 227.233V229.332C292.494 229.495 292.449 229.654 292.37 229.796C292.29 229.938 292.178 230.059 292.043 230.149C291.781 230.305 291.503 230.452 291.226 230.623L290.711 230.925L289.829 231.432C289.633 231.554 289.453 231.661 289.281 231.75C289.11 231.84 289.012 231.914 288.898 231.971L288.22 232.371L251.778 253.398L240.146 260.113C239.329 260.603 238.651 260.774 238.602 260.521C238.599 260.491 238.599 260.461 238.602 260.431V259.966C238.602 259.377 237.785 259.377 236.78 259.966C236.408 260.128 236.081 260.38 235.83 260.699C235.579 261.018 235.412 261.395 235.343 261.795V262.367C235.355 262.495 235.336 262.623 235.29 262.743C235.243 262.862 235.169 262.968 235.073 263.053L234.803 263.209L234.232 263.535L233.521 263.952C233.383 264.044 233.218 264.086 233.053 264.071C232.888 264.056 232.733 263.985 232.614 263.87C232.577 263.852 232.546 263.824 232.524 263.789C232.459 263.727 232.403 263.656 232.361 263.576C232.329 263.542 232.302 263.503 232.279 263.462C232.192 263.322 232.123 263.171 232.075 263.013C232.006 262.846 231.951 262.674 231.912 262.498C231.863 262.294 231.83 262.098 231.797 261.885C231.768 261.765 231.752 261.642 231.748 261.518C231.748 261.42 231.748 261.33 231.748 261.215C231.748 261.101 231.748 260.758 231.748 260.521V247.214H233.472Z" fill="#42E2B8"/>
<g opacity="0.6">
<path opacity="0.6" d="M231.675 247.214H233.472C233.43 245.855 233.727 244.508 234.338 243.293C234.765 243.61 235.284 243.779 235.816 243.775C236.608 243.735 237.375 243.493 238.047 243.072C238.855 242.613 239.561 241.993 240.121 241.251C240.164 241.2 240.202 241.145 240.236 241.087C240.553 240.635 240.737 240.103 240.767 239.552L288.203 212.17L289.837 211.23L291.896 210.046C292.075 209.964 292.228 209.835 292.339 209.672C292.45 209.509 292.514 209.319 292.525 209.123V207.023C292.516 207.224 292.452 207.417 292.342 207.584C292.231 207.751 292.077 207.885 291.896 207.971L286.447 211.108L240.579 237.599C239.721 238.089 239.027 238.71 239.027 238.988V239.478C238.976 239.789 238.827 240.075 238.602 240.295C238.208 240.769 237.732 241.167 237.197 241.471C236.184 242.06 235.367 242.084 235.367 241.545V241.063C235.367 240.777 234.967 240.802 234.452 241.063L233.545 241.594C232.492 242.247 231.675 244.739 231.675 247.214Z" fill="black"/>
<path opacity="0.6" d="M233.472 247.214V260.521C233.472 260.709 233.472 260.897 233.472 261.077L233.513 261.526C233.509 261.539 233.509 261.553 233.513 261.567C233.676 260.137 235.04 258.863 236.225 258.193C236.885 257.777 237.643 257.54 238.422 257.507C239.021 257.499 239.603 257.711 240.056 258.103L240.211 258.013L240.53 257.825L286.398 231.334L289.036 229.814L289.788 229.373L292.01 228.091C292.156 227.999 292.277 227.873 292.363 227.723C292.448 227.574 292.495 227.405 292.5 227.233V229.332C292.494 229.495 292.449 229.654 292.37 229.796C292.29 229.938 292.178 230.059 292.043 230.149C291.781 230.305 291.503 230.452 291.226 230.623L290.711 230.925L289.829 231.432C289.633 231.554 289.453 231.661 289.281 231.75C289.11 231.84 289.012 231.914 288.898 231.971L288.22 232.371L251.778 253.398L240.146 260.113C239.329 260.603 238.651 260.774 238.602 260.521C238.599 260.491 238.599 260.461 238.602 260.431V259.966C238.602 259.377 237.785 259.377 236.78 259.966C236.408 260.128 236.081 260.38 235.83 260.699C235.579 261.018 235.412 261.395 235.343 261.795V262.367C235.355 262.495 235.336 262.623 235.29 262.743C235.243 262.862 235.169 262.968 235.073 263.053L234.803 263.209L234.232 263.535L233.521 263.952C233.383 264.044 233.218 264.086 233.053 264.071C232.888 264.056 232.733 263.985 232.614 263.87C232.577 263.852 232.546 263.824 232.524 263.789C232.459 263.727 232.403 263.656 232.361 263.576C232.329 263.542 232.302 263.503 232.279 263.462C232.192 263.322 232.123 263.171 232.075 263.013C232.006 262.846 231.951 262.674 231.912 262.498C231.863 262.294 231.83 262.098 231.797 261.885C231.768 261.765 231.752 261.642 231.748 261.518C231.748 261.42 231.748 261.33 231.748 261.215C231.748 261.101 231.748 260.758 231.748 260.521V247.214H233.472Z" fill="black"/>
</g>
<path d="M152.159 196.812L228.44 240.859L286.096 207.571C286.284 207.508 286.448 207.387 286.564 207.226C286.68 207.064 286.742 206.871 286.742 206.672C286.742 206.473 286.68 206.28 286.564 206.118C286.448 205.957 286.284 205.837 286.096 205.773L210.615 162.185L159.969 191.445L158.719 192.172C158.55 192.355 158.444 192.587 158.417 192.834V193.324C158.417 193.863 157.6 194.77 156.595 195.35C156.544 195.384 156.489 195.411 156.431 195.432L154.749 194.46L153.932 194.917L153.817 194.974L153.229 195.317C152.729 195.695 152.356 196.217 152.159 196.812Z" fill="#263238"/>
<path d="M281.84 207.897L279.544 206.672L281.635 206.174C281.836 206.409 281.963 206.698 281.999 207.005C282.036 207.311 281.98 207.622 281.84 207.897Z" fill="#E0E0E0"/>
<g style="mix-blend-mode:multiply" opacity="0.5">
<path d="M281.84 207.897L279.544 206.672L281.635 206.174C281.836 206.409 281.963 206.698 281.999 207.005C282.036 207.311 281.98 207.622 281.84 207.897Z" fill="#E0E0E0"/>
</g>
<path d="M221.006 238.531C221.729 238.897 222.528 239.088 223.338 239.088C224.149 239.088 224.948 238.897 225.671 238.531L278.066 208.306L199.645 158.729L197.807 157.667L145.42 192.172C144.137 192.916 144.137 194.125 145.42 194.868L221.006 238.531Z" fill="#42E2B8"/>
<path d="M240.677 177.076L280.263 203.903L258.951 187.565L270.779 180.736L284.535 188.701V202.906C284.535 204.115 283.188 205.823 282.697 205.545C281.791 205.764 280.909 206.076 280.067 206.476C278.693 207.257 277.418 208.201 276.269 209.286L234.289 180.752L240.677 177.076Z" fill="#42E2B8"/>
<path opacity="0.2" d="M240.677 177.076L280.263 203.903L258.951 187.565L270.779 180.736L284.535 188.701V202.906C284.535 204.115 283.188 205.823 282.697 205.545C281.791 205.764 280.909 206.076 280.067 206.476C278.693 207.257 277.418 208.201 276.269 209.286L234.289 180.752L240.677 177.076Z" fill="black"/>
<path d="M223.334 220.796V237.199C223.877 237.211 224.414 237.085 224.894 236.831L230.613 233.515L274.398 208.24V191.298L223.334 220.796Z" fill="white"/>
<path d="M146.719 178.081V191.699C146.749 192.238 146.905 192.763 147.174 193.231C147.444 193.699 147.819 194.098 148.271 194.394L216.072 233.523L221.79 236.84C222.268 237.092 222.802 237.218 223.343 237.207V222.078L146.719 178.081Z" fill="#F0F0F0"/>
<path d="M274.422 208.24C274.462 207.621 274.69 207.028 275.076 206.541C275.634 205.797 276.341 205.177 277.151 204.72C277.825 204.299 278.595 204.058 279.389 204.017C279.904 203.965 280.421 204.086 280.859 204.36V187.581L274.431 191.298L274.422 208.24Z" fill="#455A64"/>
<path d="M276.987 204.818C276.247 205.266 275.598 205.851 275.076 206.541C274.69 207.028 274.462 207.621 274.422 208.24V191.903H276.979L276.987 204.818Z" fill="#F5F5F5"/>
<path d="M199.636 143.903L278.057 189.199V190.244C278.057 190.833 278.874 191.061 279.879 190.465C280.884 189.869 281.717 189.15 281.717 188.145L281.815 187.148L201.899 141.011L201.572 140.823C201.49 140.973 201.445 141.142 201.442 141.313V141.795C201.45 142.375 200.641 143.314 199.636 143.903Z" fill="#42E2B8"/>
<path opacity="0.2" d="M199.636 143.903L278.057 189.199V190.244C278.057 190.833 278.874 191.061 279.879 190.465C280.884 189.869 281.717 189.15 281.717 188.145L281.815 187.148L201.899 141.011L201.572 140.823C201.49 140.973 201.445 141.142 201.442 141.313V141.795C201.45 142.375 200.641 143.314 199.636 143.903Z" fill="black"/>
<path d="M225.671 219.448L276.938 189.869C277.592 189.526 278.188 189.248 278.433 189.379L278.098 189.199L199.677 143.903L198.754 143.38C198.344 143.258 197.912 143.228 197.488 143.291C197.065 143.355 196.66 143.51 196.304 143.747L145.42 173.098C144.137 173.841 144.137 175.059 145.42 175.794L221.023 219.448C221.743 219.812 222.539 220.002 223.347 220.002C224.154 220.002 224.95 219.812 225.671 219.448Z" fill="#42E2B8"/>
<path d="M201.581 140.823L201.907 141.011L281.84 187.149C281.88 187.063 281.938 186.988 282.011 186.928L282.281 186.781L282.852 186.446L283.563 186.029C283.701 185.939 283.866 185.898 284.031 185.913C284.195 185.928 284.35 185.998 284.47 186.111C284.504 186.134 284.534 186.161 284.56 186.193C284.654 186.294 284.737 186.407 284.805 186.528C284.889 186.67 284.957 186.82 285.009 186.977C285.073 187.148 285.128 187.323 285.172 187.5C285.213 187.696 285.254 187.892 285.287 188.104C285.312 188.228 285.328 188.354 285.336 188.48V188.774C285.336 188.995 285.336 189.232 285.336 189.477V187.23C285.254 186.49 285 185.78 284.594 185.156C284.188 184.532 283.642 184.011 283 183.636L207.397 139.982C206.774 139.615 206.074 139.397 205.352 139.346C204.631 139.295 203.908 139.412 203.239 139.687L202.283 140.243L201.883 140.48C201.751 140.563 201.647 140.682 201.581 140.823Z" fill="#42E2B8"/>
<path d="M225.671 238.531L228.832 236.701L276.268 209.311C276.31 208.691 276.538 208.099 276.922 207.611C277.483 206.87 278.189 206.25 278.997 205.79C279.671 205.376 280.437 205.137 281.227 205.095C281.76 205.085 282.281 205.254 282.706 205.577C283.315 204.36 283.613 203.009 283.571 201.648H285.369C285.369 204.099 284.552 206.615 283.547 207.195L282.64 207.726C282.126 208.02 281.725 208.036 281.725 207.726V207.244C281.725 206.705 280.908 206.729 279.887 207.309C278.866 207.889 278.066 208.804 278.066 209.343V209.825C278.066 210.103 277.371 210.724 276.514 211.222L230.637 237.714L225.671 240.581C224.952 240.953 224.152 241.141 223.343 241.128V239.053C224.15 239.081 224.952 238.901 225.671 238.531Z" fill="#42E2B8"/>
<path opacity="0.4" d="M225.671 238.531L228.832 236.701L276.268 209.311C276.31 208.691 276.538 208.099 276.922 207.611C277.483 206.87 278.189 206.25 278.997 205.79C279.671 205.376 280.437 205.137 281.227 205.095C281.76 205.085 282.281 205.254 282.706 205.577C283.315 204.36 283.613 203.009 283.571 201.648H285.369C285.369 204.099 284.552 206.615 283.547 207.195L282.64 207.726C282.126 208.02 281.725 208.036 281.725 207.726V207.244C281.725 206.705 280.908 206.729 279.887 207.309C278.866 207.889 278.066 208.804 278.066 209.343V209.825C278.066 210.103 277.371 210.724 276.514 211.222L230.637 237.714L225.671 240.581C224.952 240.953 224.152 241.141 223.343 241.128V239.053C224.15 239.081 224.952 238.901 225.671 238.531Z" fill="black"/>
<path d="M225.654 219.456L228.816 217.627L265.257 196.6L276.938 189.869C277.755 189.387 278.441 189.215 278.49 189.468V189.999C278.49 190.579 279.307 190.579 280.312 189.999C280.686 189.837 281.013 189.583 281.264 189.263C281.515 188.942 281.682 188.563 281.75 188.161V187.59C281.738 187.462 281.756 187.334 281.803 187.214C281.85 187.095 281.924 186.989 282.019 186.903L282.289 186.756L282.861 186.421L283.571 186.005C283.71 185.915 283.874 185.874 284.039 185.888C284.203 185.903 284.358 185.973 284.478 186.087C284.512 186.109 284.542 186.137 284.568 186.168C284.631 186.235 284.686 186.309 284.731 186.389C284.762 186.424 284.79 186.462 284.813 186.503C284.897 186.645 284.966 186.796 285.017 186.952C285.081 187.124 285.136 187.298 285.181 187.475C285.221 187.671 285.262 187.867 285.295 188.08C285.32 188.204 285.336 188.329 285.344 188.456V188.75C285.344 188.97 285.344 189.207 285.344 189.452V201.607H283.547V189.517C283.547 189.33 283.547 189.134 283.547 188.954L283.506 188.505C283.343 189.934 281.978 191.208 280.786 191.878C280.129 192.296 279.374 192.532 278.597 192.564C277.997 192.572 277.416 192.36 276.963 191.968L276.808 192.058L276.489 192.246L230.613 218.737L225.646 221.605C224.936 221.968 224.148 222.15 223.351 222.136V220.061C224.157 220.055 224.949 219.847 225.654 219.456Z" fill="#42E2B8"/>
<path opacity="0.4" d="M225.654 219.456L228.816 217.627L265.257 196.6L276.938 189.869C277.755 189.387 278.441 189.215 278.49 189.468V189.999C278.49 190.579 279.307 190.579 280.312 189.999C280.686 189.837 281.013 189.583 281.264 189.263C281.515 188.942 281.682 188.563 281.75 188.161V187.59C281.738 187.462 281.756 187.334 281.803 187.214C281.85 187.095 281.924 186.989 282.019 186.903L282.289 186.756L282.861 186.421L283.571 186.005C283.71 185.915 283.874 185.874 284.039 185.888C284.203 185.903 284.358 185.973 284.478 186.087C284.512 186.109 284.542 186.137 284.568 186.168C284.631 186.235 284.686 186.309 284.731 186.389C284.762 186.424 284.79 186.462 284.813 186.503C284.897 186.645 284.966 186.796 285.017 186.952C285.081 187.124 285.136 187.298 285.181 187.475C285.221 187.671 285.262 187.867 285.295 188.08C285.32 188.204 285.336 188.329 285.344 188.456V188.75C285.344 188.97 285.344 189.207 285.344 189.452V201.607H283.547V189.517C283.547 189.33 283.547 189.134 283.547 188.954L283.506 188.505C283.343 189.934 281.978 191.208 280.786 191.878C280.129 192.296 279.374 192.532 278.597 192.564C277.997 192.572 277.416 192.36 276.963 191.968L276.808 192.058L276.489 192.246L230.613 218.737L225.646 221.605C224.936 221.968 224.148 222.15 223.351 222.136V220.061C224.157 220.055 224.949 219.847 225.654 219.456Z" fill="black"/>
<path d="M144.448 174.421V176.529C144.473 176.812 144.571 177.084 144.733 177.317C144.894 177.551 145.114 177.738 145.371 177.86L216.015 218.639L220.974 221.507C221.69 221.877 222.487 222.065 223.293 222.054V219.979C222.483 219.997 221.681 219.806 220.965 219.424L217.812 217.602L145.42 175.794C145.145 175.679 144.909 175.49 144.737 175.247C144.565 175.004 144.465 174.718 144.448 174.421Z" fill="#42E2B8"/>
<path opacity="0.2" d="M144.448 174.421V176.529C144.473 176.812 144.571 177.084 144.733 177.317C144.894 177.551 145.114 177.738 145.371 177.86L216.015 218.639L220.974 221.507C221.69 221.877 222.487 222.065 223.293 222.054V219.979C222.483 219.997 221.681 219.806 220.965 219.424L217.812 217.602L145.42 175.794C145.145 175.679 144.909 175.49 144.737 175.247C144.565 175.004 144.465 174.718 144.448 174.421Z" fill="black"/>
<path d="M144.448 193.488V195.595C144.473 195.878 144.571 196.15 144.733 196.383C144.894 196.617 145.114 196.804 145.371 196.927L216.048 237.714L221.006 240.581C221.723 240.952 222.52 241.14 223.326 241.128V239.053C222.515 239.071 221.713 238.88 220.998 238.498L217.845 236.676L145.42 194.86C145.145 194.745 144.909 194.556 144.737 194.313C144.565 194.071 144.465 193.784 144.448 193.488Z" fill="#42E2B8"/>
<path opacity="0.2" d="M144.448 193.488V195.595C144.473 195.878 144.571 196.15 144.733 196.383C144.894 196.617 145.114 196.804 145.371 196.927L216.048 237.714L221.006 240.581C221.723 240.952 222.52 241.14 223.326 241.128V239.053C222.515 239.071 221.713 238.88 220.998 238.498L217.845 236.676L145.42 194.86C145.145 194.745 144.909 194.556 144.737 194.313C144.565 194.071 144.465 193.784 144.448 193.488Z" fill="black"/>
<path d="M177.074 119.372L169.575 132.736L180.505 138.552L188.462 126.707L177.074 119.372Z" fill="#FFA8A7"/>
<path d="M203.68 89.2694C199.514 88.5587 193.208 88.3708 189.107 95.4042C185.006 102.438 176.167 119.796 176.167 119.796C176.167 119.796 181.33 126.478 188.805 127.696L201.017 108.319L203.68 89.2694Z" fill="#455A64"/>
<path d="M193.837 252.94H184.508V268.911H193.837V252.94Z" fill="#FFA8A7"/>
<path d="M166.83 249.052L157.502 249.371L157.036 232.469L166.357 232.151L166.83 249.052Z" fill="#FFA8A7"/>
<path d="M184.508 264.303V262.972C183.617 263.356 181.542 271.271 177.842 274.645C174.901 277.333 170.89 280.429 169.869 283.418C168.807 286.531 175.457 288.254 178.201 287.764C181.395 287.201 186.934 284.954 188.323 282.863C189.711 280.772 190.365 277.708 191.492 276.181C192.619 274.653 195.225 272.913 195.838 271.173C196.173 270.201 195.773 268.077 195.307 266.272C194.874 264.638 194.4 262.808 193.837 262.964V263.977C193.159 264.728 191.288 265.471 189.172 265.553C187.808 265.618 184.5 265.349 184.508 264.303Z" fill="#263238"/>
<path d="M157.404 246.495C156.922 246.495 156.529 247.198 155.459 248.35C153.863 249.962 152.007 251.296 149.97 252.295C146.474 254.051 139.702 256.739 136.614 258.136C134.694 259.002 134.784 261.322 136.769 262.645C138.754 263.968 143.541 264.916 149.3 263.625C152.429 262.923 156.513 260.031 159.103 260.186C161.692 260.341 166.52 260.309 168.423 258.994C170.327 257.678 169.567 254.909 169.028 252.458C168.44 249.828 167.598 245.801 166.724 245.981V246.797C165.605 248.497 159.895 249.191 157.428 247.941L157.404 246.495Z" fill="#263238"/>
<path d="M231.413 155.821C233.456 170.239 230.703 172.976 217.004 186.814C209.652 194.239 197.766 205.128 197.766 205.128C197.766 205.128 197.937 209.735 198.027 220.061C198.117 229.153 194.319 258.74 194.319 258.74C194.319 258.74 188.127 261.346 183.879 258.642C183.879 258.642 181.959 236.627 180.922 225.15C179.517 209.629 178.781 201.803 179.574 198.462C180.276 195.513 194.221 177.901 197.439 172.967L167.803 190.187C168.377 194.55 168.666 198.946 168.668 203.347C168.342 215.69 166.822 240.344 166.822 240.344C166.822 240.344 160.042 243.375 156.677 240.761C156.677 240.761 148.14 186.846 148.14 182.419C148.14 175.696 177.336 155.625 182.866 150.952C186.019 148.289 189.532 145.406 189.532 145.406L231.413 155.821Z" fill="#455A64"/>
<path d="M197.439 172.976C194.322 170.452 191.975 167.103 190.667 163.312C190.83 165.786 191.183 168.244 191.721 170.664C192.538 173.866 167.802 190.187 167.802 190.187L197.439 172.976Z" fill="#37474F"/>
<path d="M213.91 63.4842C215.579 56.3639 211.16 49.2391 204.04 47.5703C196.919 45.9016 189.794 50.3209 188.126 57.4412C186.457 64.5615 190.876 71.6863 197.997 73.3551C205.117 75.0238 212.242 70.6045 213.91 63.4842Z" fill="#263238"/>
<path d="M228.84 97.2912C228.84 97.2912 232.108 99.9705 232.108 108.433V126.707L231.642 157.438C225.107 164.553 195.699 161.858 188.421 146.337C188.421 146.337 188.478 113.898 188.478 106.628C188.478 99.3579 192.562 89.9229 203.672 89.2693L218.065 92.6186L228.84 97.2912Z" fill="#263238"/>
<path d="M223.906 69.8765C223.906 69.8765 221.758 79.9569 220.9 81.6152C220.328 82.6374 219.382 83.3986 218.261 83.7391L218.409 76.6485L223.906 69.8765Z" fill="#263238"/>
<path d="M221.21 55.434C221.956 55.3502 222.711 55.4367 223.419 55.6872C224.126 55.9377 224.768 56.3455 225.295 56.8799C227.059 58.6852 226.071 64.338 223.873 69.8765L219.83 70.3421L221.21 55.434Z" fill="#263238"/>
<path d="M218.653 70.3421C219.47 70.824 220.622 69.2719 221.619 68.2263C222.615 67.1807 225.883 65.7757 227.508 69.1821C229.134 72.5885 226.071 77.2938 223.506 78.1025C219.078 79.4912 218.408 76.6484 218.408 76.6484L218.073 92.6185C214.259 96.8827 201.213 95.8861 203.672 92.1937V87.2924C203.672 87.2924 199.661 87.9051 197.709 87.6029C194.441 87.0964 192.399 84.5314 191.41 81.0024C189.826 75.3414 189.221 70.775 190.593 59.6409C192.072 47.4366 206.261 47.3141 213.924 52.1337C221.586 56.9533 218.653 70.3421 218.653 70.3421Z" fill="#FFA8A7"/>
<path d="M218.654 71.7063C219.062 71.7063 220.606 69.1413 221.619 68.2264C223.016 66.9521 221.21 55.434 221.21 55.434C221.21 55.434 222.558 52.5667 219.863 49.6096C217.951 47.502 214.749 47.2651 209.284 46.4074C206.417 45.9581 202.071 45.1494 199.204 44.6184C195.789 43.9813 192.954 43.3114 190.545 45.4353C189.599 46.2553 188.93 47.3482 188.63 48.5637C188.33 49.7792 188.414 51.0577 188.87 52.2236C189.562 53.6777 190.792 54.8056 192.301 55.3686C192.301 55.3686 193.788 56.692 198.975 57.321C204.162 57.95 212.241 57.2066 213.344 57.0514C214.847 56.8472 215.165 58.3012 215.982 62.2876C216.693 65.7594 217.306 71.6818 218.654 71.7063Z" fill="#263238"/>
<path d="M221.202 56.3652L226.103 53.7267C225.947 53.3972 225.724 53.103 225.451 52.8616C225.177 52.6202 224.857 52.4368 224.511 52.3223C224.164 52.2078 223.798 52.1646 223.434 52.1954C223.071 52.2262 222.717 52.3303 222.395 52.5014C221.74 52.8707 221.251 53.4771 221.029 54.1958C220.807 54.9145 220.869 55.6908 221.202 56.3652Z" fill="#263238"/>
<path d="M203.68 87.3333C203.68 87.3333 210.95 85.8711 213.483 84.5233C214.977 83.7429 216.201 82.5302 216.995 81.0433C216.611 82.5244 215.933 83.9133 215.002 85.1278C213.14 87.5049 203.672 89.253 203.672 89.253L203.68 87.3333Z" fill="#F28F8F"/>
<path d="M205.428 68.5286C205.439 68.8155 205.535 69.0927 205.702 69.3257C205.87 69.5587 206.103 69.7371 206.371 69.8388C206.64 69.9405 206.932 69.961 207.212 69.8976C207.492 69.8342 207.747 69.6898 207.946 69.4824C208.144 69.275 208.277 69.0138 208.328 68.7313C208.379 68.4488 208.346 68.1575 208.233 67.8938C208.119 67.6301 207.931 67.4056 207.69 67.2483C207.45 67.091 207.169 67.0078 206.882 67.0092C206.687 67.0135 206.494 67.0562 206.316 67.1348C206.137 67.2135 205.975 67.3266 205.84 67.4677C205.705 67.6088 205.599 67.7751 205.529 67.9572C205.458 68.1392 205.424 68.3334 205.428 68.5286Z" fill="#263238"/>
<path d="M207.764 62.5L210.885 64.2155C211.095 63.7906 211.137 63.3019 211.002 62.8474C210.868 62.3929 210.566 62.0062 210.158 61.7648C209.953 61.6517 209.728 61.581 209.496 61.5569C209.263 61.5327 209.028 61.5556 208.805 61.6242C208.582 61.6929 208.374 61.8058 208.196 61.9562C208.017 62.1067 207.87 62.2916 207.764 62.5Z" fill="#263238"/>
<path d="M204.342 78.5845L201.017 79.8343C201.089 80.0575 201.205 80.264 201.358 80.4413C201.511 80.6186 201.699 80.763 201.909 80.866C202.12 80.969 202.349 81.0284 202.583 81.0406C202.817 81.0528 203.052 81.0176 203.272 80.9371C203.72 80.7596 204.082 80.4153 204.281 79.9766C204.481 79.5379 204.503 79.0389 204.342 78.5845Z" fill="#F28F8F"/>
<path d="M192.064 63.7744L194.907 61.5933C194.774 61.4029 194.605 61.2413 194.408 61.1182C194.212 60.9952 193.992 60.9132 193.763 60.8774C193.534 60.8415 193.3 60.8524 193.076 60.9095C192.851 60.9665 192.64 61.0685 192.456 61.2093C192.073 61.5044 191.819 61.9356 191.746 62.4133C191.673 62.891 191.787 63.3784 192.064 63.7744Z" fill="#263238"/>
<path d="M193.314 68.112C193.325 68.3989 193.42 68.6761 193.588 68.909C193.756 69.142 193.988 69.3205 194.257 69.4222C194.525 69.5239 194.818 69.5443 195.098 69.481C195.378 69.4176 195.633 69.2732 195.831 69.0658C196.03 68.8584 196.163 68.5972 196.214 68.3147C196.265 68.0322 196.232 67.7409 196.118 67.4772C196.005 67.2135 195.816 66.989 195.576 66.8317C195.336 66.6744 195.055 66.5912 194.768 66.5926C194.573 66.5969 194.38 66.6395 194.201 66.7182C194.023 66.7969 193.861 66.91 193.726 67.0511C193.591 67.1922 193.485 67.3585 193.414 67.5405C193.344 67.7226 193.31 67.9168 193.314 68.112Z" fill="#263238"/>
<path d="M200.51 66.9438L200.347 75.7744L195.127 74.6226L200.51 66.9438Z" fill="#F28F8F"/>
<path d="M191.59 140.357V141.174C191.59 141.592 191.479 142.002 191.27 142.363C191.06 142.725 190.76 143.025 190.397 143.233L167.713 156.303C167.351 156.512 166.941 156.621 166.524 156.621C166.107 156.621 165.697 156.512 165.335 156.303L123.715 132.278C123.353 132.07 123.052 131.77 122.843 131.409C122.633 131.048 122.523 130.637 122.522 130.22V129.64L166.52 155.037L191.59 140.357Z" fill="#42E2B8"/>
<path opacity="0.6" d="M191.59 140.357V141.174C191.59 141.592 191.479 142.002 191.27 142.363C191.06 142.725 190.76 143.025 190.397 143.233L167.713 156.303C167.351 156.512 166.941 156.621 166.524 156.621C166.107 156.621 165.697 156.512 165.335 156.303L123.715 132.278C123.353 132.07 123.052 131.77 122.843 131.409C122.633 131.048 122.523 130.637 122.522 130.22V129.64L166.52 155.037L191.59 140.357Z" fill="black"/>
<path d="M122.547 129.648L147.225 115.401C147.441 115.277 147.686 115.211 147.936 115.211C148.185 115.211 148.431 115.277 148.647 115.401L191.451 140.12C191.499 140.149 191.538 140.189 191.565 140.237C191.592 140.285 191.607 140.339 191.607 140.394C191.607 140.449 191.592 140.503 191.565 140.551C191.538 140.599 191.499 140.639 191.451 140.668L166.545 155.045L122.547 129.648Z" fill="#42E2B8"/>
<path opacity="0.5" d="M122.547 129.648L147.225 115.401C147.441 115.277 147.686 115.211 147.936 115.211C148.185 115.211 148.431 115.277 148.647 115.401L191.451 140.12C191.499 140.149 191.538 140.189 191.565 140.237C191.592 140.285 191.607 140.339 191.607 140.394C191.607 140.449 191.592 140.503 191.565 140.551C191.538 140.599 191.499 140.639 191.451 140.668L166.545 155.045L122.547 129.648Z" fill="black"/>
<path d="M166.749 152.954L180.056 145.275L141.139 122.811L127.759 130.449L166.749 152.954Z" fill="#263238"/>
<path d="M173.292 131.6L173.047 131.739L166.52 135.505L154.92 128.807L154.683 128.668L161.447 124.763L173.292 131.6Z" fill="#263238"/>
<path d="M173.047 131.739L166.52 135.505L154.92 128.807L161.447 125.041L173.047 131.739Z" fill="#263238"/>
<path opacity="0.7" d="M166.52 155.045V156.63C166.104 156.629 165.695 156.519 165.335 156.311L123.715 132.287C123.353 132.078 123.052 131.779 122.843 131.417C122.633 131.056 122.523 130.646 122.522 130.228V129.648L166.52 155.045Z" fill="black"/>
<path d="M165.842 155.396C165.446 155.554 165.02 155.619 164.595 155.586C164.17 155.554 163.758 155.424 163.391 155.208L121.959 131.29C121.599 131.083 121.289 130.8 121.052 130.459C120.815 130.119 120.656 129.73 120.587 129.321L116.053 102.266C116.027 102.115 116.013 101.962 116.012 101.808C116.007 101.057 116.301 100.334 116.829 99.799L159.887 124.665C160.16 124.815 160.396 125.024 160.579 125.277C160.761 125.53 160.885 125.82 160.941 126.127L165.842 155.396Z" fill="#42E2B8"/>
<path opacity="0.5" d="M165.842 155.396C165.446 155.554 165.02 155.619 164.595 155.586C164.17 155.554 163.758 155.424 163.391 155.208L121.959 131.29C121.599 131.083 121.289 130.8 121.052 130.459C120.815 130.119 120.656 129.73 120.587 129.321L116.053 102.266C116.027 102.115 116.013 101.962 116.012 101.808C116.007 101.057 116.301 100.334 116.829 99.799L159.887 124.665C160.16 124.815 160.396 125.024 160.579 125.277C160.761 125.53 160.885 125.82 160.941 126.127L165.842 155.396Z" fill="black"/>
<path d="M166.52 155.045L166.242 155.208C166.117 155.281 165.985 155.344 165.85 155.396L160.949 126.127C160.897 125.824 160.78 125.536 160.605 125.283C160.43 125.031 160.202 124.82 159.936 124.665L116.878 99.799C117.049 99.6305 117.241 99.4849 117.45 99.366L160.598 124.273C160.863 124.428 161.092 124.639 161.267 124.891C161.442 125.144 161.559 125.432 161.611 125.735L166.52 155.045Z" fill="#E0E0E0"/>
<path d="M142.512 130.424C142.21 128.619 140.339 126.209 138.337 125.057C136.336 123.905 134.956 124.428 135.266 126.242C135.576 128.055 137.439 130.457 139.44 131.617C141.442 132.777 142.822 132.237 142.512 130.424Z" fill="#42E2B8"/>
<path d="M150.999 148.036C150.913 146.864 150.685 145.706 150.321 144.589C149.684 142.587 147.789 134.876 143.459 133.716C142.945 133.561 142.398 133.544 141.875 133.667C140.674 133.994 140.126 135.244 139.89 136.363C139.669 138.016 139.669 139.692 139.89 141.346C139.224 140.584 138.444 139.931 137.578 139.41C136.81 138.831 135.884 138.501 134.923 138.462C134.789 138.456 134.656 138.482 134.535 138.539C134.414 138.596 134.309 138.682 134.229 138.789C134.073 139.075 134.229 139.434 134.474 139.687C134.907 140.21 135.438 140.651 135.871 141.174C136.21 141.63 136.524 142.105 136.81 142.596C137.357 143.478 137.97 144.311 138.583 145.152C139.76 146.901 141.236 148.427 142.945 149.662C144.91 150.992 147.139 151.881 149.48 152.268C152.641 152.66 155.713 152.611 157.706 151.916L150.999 148.036Z" fill="#FFA8A7"/>
<path d="M227.974 97.528C225.058 96.025 220.794 101.98 222.15 108.205C223.506 114.429 230.188 136.314 230.188 136.314C230.188 136.314 200.004 139.009 197.439 139.328C195.65 139.54 193.649 138.634 191.99 138.086C189.736 137.335 187.457 136.812 185.235 135.995C184.848 135.818 184.427 135.728 184.001 135.734C183.788 135.743 183.583 135.822 183.419 135.96C183.255 136.097 183.141 136.285 183.095 136.493C183.084 136.749 183.149 137.002 183.282 137.22C183.995 138.674 185.066 139.922 186.395 140.847C187.038 141.228 187.65 141.659 188.225 142.138C188.576 142.489 189.352 143.461 189.041 143.992L177.05 150.895C177.05 150.895 179.811 153.297 189.809 150.495C193.414 149.552 196.931 148.303 200.323 146.762C200.323 146.762 235.89 148.24 242.319 146.296C244.59 145.602 245.406 143.992 243.871 136.673C242.114 128.194 237.074 112.73 235.931 108.646C233.423 99.799 232.826 100.003 227.974 97.528Z" fill="#FFA8A7"/>
<path d="M226.471 96.2618C226.471 96.2618 231.291 97.6179 233.366 100.346C235.44 103.075 243.446 129.468 243.446 129.468C241.353 131.214 238.906 132.483 236.274 133.188C233.642 133.894 230.888 134.018 228.203 133.553C228.203 133.553 221.766 115.295 221.08 110.418C219.862 102.862 223.555 96.9153 226.471 96.2618Z" fill="#455A64"/>
<path d="M248.986 49.2574C244.737 49.2574 241.41 40.3432 241.41 28.9624C241.41 17.5815 244.737 8.64978 248.986 8.64978C253.234 8.64978 256.561 17.564 256.561 28.9448C256.561 40.3257 253.234 49.2574 248.986 49.2574ZM248.986 9.98405C245.962 9.98405 242.727 17.6123 242.727 28.9624C242.727 40.3125 245.962 47.9407 248.986 47.9407C252.01 47.9407 255.245 40.3169 255.245 28.9624C255.245 17.6079 252.01 9.9665 248.986 9.9665V9.98405Z" fill="#42E2B8"/>
<path d="M236.279 41.1289C233.865 41.1289 232.176 40.4442 231.412 39.1187C230.337 37.2577 231.263 34.4619 234.015 31.2491C236.622 28.2075 240.598 25.0693 245.198 22.4139C249.798 19.7585 254.507 17.8844 258.444 17.147C262.605 16.3702 265.467 16.9627 266.56 18.8237C267.653 20.6846 266.709 23.4805 263.957 26.6932C261.35 29.7349 257.373 32.8731 252.774 35.5328C248.174 38.1926 243.464 40.058 239.527 40.7997C238.457 41.0091 237.37 41.1193 236.279 41.1289ZM261.736 18.1258C260.713 18.1387 259.694 18.2445 258.69 18.4418C254.898 19.1528 250.351 20.9655 245.861 23.5507C241.371 26.1358 237.522 29.1775 235.02 32.105C232.689 34.8262 231.794 37.1392 232.553 38.4603C233.312 39.7815 235.77 40.1589 239.29 39.5006C243.083 38.7939 247.63 36.9768 252.12 34.3917C256.61 31.8065 260.459 28.7649 262.961 25.8374C265.291 23.1206 266.187 20.8031 265.427 19.482C264.905 18.5779 263.61 18.117 261.732 18.117L261.736 18.1258Z" fill="#42E2B8"/>
<path d="M261.692 41.1289C260.602 41.1176 259.514 41.0059 258.444 40.7953C254.494 40.0579 249.802 38.1882 245.198 35.5284C240.594 32.8687 236.622 29.7173 234.015 26.6845C231.263 23.4717 230.337 20.6758 231.412 18.8149C232.487 16.9539 235.362 16.3614 239.527 17.1382C243.478 17.8756 248.169 19.7453 252.774 22.4051C257.378 25.0649 261.35 28.1987 263.957 31.2403C266.709 34.4531 267.635 37.2489 266.56 39.1099C265.796 40.4354 264.106 41.1289 261.692 41.1289ZM236.236 18.1258C234.357 18.1258 233.062 18.5866 232.544 19.482C231.785 20.7987 232.68 23.1205 235.011 25.8374C237.522 28.7649 241.375 31.8065 245.852 34.3917C250.329 36.9768 254.889 38.7807 258.681 39.5005C262.193 40.1589 264.655 39.7814 265.418 38.4603C266.182 37.1392 265.282 34.8262 262.952 32.105C260.441 29.1775 256.592 26.1402 252.111 23.5507C247.63 20.9611 243.074 19.1616 239.282 18.4418C238.28 18.2418 237.262 18.1331 236.24 18.117L236.236 18.1258Z" fill="#42E2B8"/>
<path d="M248.986 31.9425C250.632 31.9425 251.966 30.6083 251.966 28.9624C251.966 27.3165 250.632 25.9822 248.986 25.9822C247.34 25.9822 246.006 27.3165 246.006 28.9624C246.006 30.6083 247.34 31.9425 248.986 31.9425Z" fill="#42E2B8"/>
<path d="M152.212 55.0443L131.834 88.7962L111.451 55.0443H126.615L131.834 64.845L137.048 55.0443H152.212Z" fill="#42E2B8"/>
<path opacity="0.1" d="M144.395 55.0443L131.833 76.4541L119.268 55.0443H126.615L131.833 64.845L137.048 55.0443H144.395Z" fill="#000102"/>
<path d="M64.7234 282.953C64.5323 282.956 64.3417 282.936 64.1555 282.893L57.6513 281.333C57.3147 281.256 56.9999 281.104 56.7309 280.888C56.462 280.671 56.2459 280.396 56.0991 280.084C55.9457 279.753 55.87 279.391 55.8778 279.026C55.8857 278.661 55.9769 278.303 56.1445 277.979L57.1364 276.018C56.5496 275.701 55.9808 275.352 55.4328 274.973L49.5798 275.957C49.0694 276.048 48.544 276.002 48.0571 275.824C47.5702 275.646 47.1394 275.342 46.8085 274.942C46.8085 274.942 45.0064 272.406 44.2871 271.414C44.0753 271.135 43.9309 270.811 43.8652 270.466C43.7995 270.122 43.8144 269.768 43.9085 269.43C43.9552 269.271 44.0213 269.119 44.1054 268.976L44.1508 268.9C44.4819 268.393 44.9802 268.018 45.5592 267.84L50.1023 266.417C50.0947 266.27 50.0947 266.124 50.1023 265.977L45.4456 264.501C45.0603 264.38 44.7154 264.156 44.4485 263.853C44.1815 263.55 44.0026 263.18 43.9312 262.782L43.8858 262.669V262.358C43.8885 261.834 44.0583 261.325 44.3704 260.904L46.7252 257.626C47.0003 257.249 47.3587 256.941 47.7724 256.726C48.1861 256.51 48.644 256.393 49.1104 256.384C49.2489 256.372 49.3882 256.372 49.5268 256.384L55.4782 257.383C55.872 257.103 56.3263 256.823 56.8033 256.543L57.1516 256.354L56.0915 254.264C55.9371 253.951 55.8593 253.606 55.8644 253.257C55.8813 252.717 56.0806 252.198 56.4298 251.786C56.779 251.373 57.2576 251.091 57.7876 250.985L64.0343 249.471C64.2828 249.415 64.5368 249.387 64.7915 249.388C65.1718 249.376 65.5504 249.442 65.9044 249.581C66.2585 249.721 66.5805 249.93 66.851 250.198L69.5618 253.052C70.1523 253.015 70.7884 252.999 71.4168 252.999C72.0453 252.999 72.7192 252.999 73.3779 253.052L75.9372 250.357C76.2321 250.051 76.5846 249.806 76.9745 249.637C77.3644 249.469 77.7839 249.378 78.2087 249.372C78.4104 249.374 78.6111 249.4 78.8069 249.448L85.2884 250.963C85.7464 251.066 86.1612 251.308 86.4757 251.657C86.7903 252.005 86.9892 252.442 87.045 252.909V252.999V253.264C87.0331 253.642 86.9374 254.011 86.7649 254.347L85.7881 256.286L86.0985 256.452C86.5831 256.732 87.0526 257.028 87.4842 257.323L93.3372 256.339C93.8483 256.247 94.3744 256.294 94.8614 256.474C95.3485 256.653 95.7789 256.96 96.1084 257.361L98.7056 260.972C98.9673 261.339 99.1076 261.779 99.1069 262.229V262.351C99.0623 262.841 98.8687 263.307 98.552 263.684C98.2353 264.062 97.8107 264.334 97.3351 264.463L92.8223 265.955V266.394L97.4638 267.863C97.9207 268.003 98.3205 268.286 98.6041 268.67C98.8877 269.055 99.0401 269.52 99.0387 269.998C99.0317 270.513 98.8708 271.014 98.5769 271.437L96.1993 274.746C95.9242 275.122 95.5658 275.43 95.1521 275.646C94.7384 275.861 94.2805 275.978 93.8142 275.987C93.6731 275.999 93.5313 275.999 93.3902 275.987L87.4463 274.98C86.9053 275.356 86.3442 275.703 85.7654 276.018L86.8179 278.107C86.9618 278.404 87.0366 278.728 87.0366 279.058C87.0366 279.387 86.9618 279.712 86.8179 280.008C86.6545 280.348 86.4164 280.646 86.1214 280.881C85.8264 281.116 85.482 281.281 85.1142 281.363L78.8448 282.878C78.5972 282.94 78.3428 282.97 78.0876 282.969C77.7086 282.979 77.3316 282.912 76.979 282.773C76.6264 282.633 76.3055 282.425 76.0356 282.158L73.3174 279.304C72.7192 279.304 72.068 279.357 71.4244 279.357C70.7808 279.357 70.1523 279.357 69.5087 279.304L66.9495 281.992C66.3631 282.593 65.5631 282.939 64.7234 282.953ZM62.6714 264.44L62.5124 264.63C62.4527 264.707 62.3971 264.788 62.3458 264.872C62.3458 264.91 62.2247 265.069 62.2247 265.069C61.9868 265.459 61.8778 265.914 61.9131 266.369C61.9485 266.824 62.1263 267.257 62.4215 267.605C62.7379 268.035 63.1214 268.411 63.5573 268.718C63.8087 268.912 64.0745 269.087 64.3524 269.241C66.543 270.373 68.9817 270.941 71.4471 270.892C72.7699 270.894 74.0885 270.744 75.3769 270.445C76.483 270.194 77.5485 269.788 78.5419 269.241C78.8037 269.089 79.0565 268.922 79.2991 268.741C79.8106 268.382 80.2499 267.93 80.5938 267.409L80.7529 267.128L80.8134 266.969C80.9572 266.605 80.9994 266.208 80.9354 265.821C80.8714 265.434 80.7036 265.072 80.45 264.774C79.0416 262.805 75.4147 261.487 71.4244 261.487C70.1036 261.483 68.7871 261.636 67.5022 261.942C65.7722 262.281 64.1659 263.082 62.8531 264.259L62.6714 264.44Z" fill="#E0E0E0"/>
<path d="M45.6888 262.54C45.6888 262.865 45.6888 268.946 45.6888 269.112C45.6904 269.173 45.7117 269.231 45.7494 269.279L48.3313 272.883C48.4534 273.005 48.6039 273.094 48.7691 273.143C48.9344 273.192 49.1092 273.199 49.2778 273.163L55.2368 272.156C55.6039 272.093 55.9813 272.16 56.3044 272.345C56.7587 272.663 57.2433 272.974 57.7506 273.261C57.7506 273.261 57.7506 278.1 57.7506 278.206C57.759 278.292 57.7953 278.374 57.854 278.438C57.9127 278.502 57.9907 278.546 58.0762 278.562L64.5653 280.114C64.7575 280.136 64.9522 280.113 65.1338 280.045C65.3153 279.978 65.4785 279.87 65.6102 279.728L68.2906 276.911C68.5802 276.62 68.9707 276.452 69.3809 276.442C70.7351 276.521 72.0928 276.521 73.447 276.442C73.802 276.411 74.155 276.519 74.4313 276.745L77.4146 279.887C77.5578 279.994 77.7239 280.067 77.8998 280.1C78.0758 280.133 78.2569 280.125 78.4292 280.076L84.6684 278.562C84.9788 278.486 85.1681 278.289 85.1605 278.092V273.224C85.5845 272.974 85.9934 272.716 86.3796 272.466C86.7268 272.23 87.1414 272.113 87.5608 272.133L93.7091 273.171C93.8955 273.18 94.0815 273.144 94.2505 273.065C94.4196 272.986 94.5665 272.866 94.6783 272.716L97.0255 269.43C97.1112 269.322 97.1591 269.189 97.1618 269.052C97.1618 268.938 97.1618 267.007 97.1618 264.312C97.1871 264.267 97.2026 264.218 97.2072 264.168C97.2072 264.107 97.2072 255.347 97.2072 254.801C97.2083 254.742 97.1897 254.683 97.1542 254.635L94.5723 251.031C94.4487 250.912 94.2978 250.824 94.1329 250.777C93.9679 250.729 93.7938 250.723 93.6258 250.758L87.6668 251.758C87.3071 251.815 86.9386 251.748 86.6219 251.568C86.1563 251.238 85.6735 250.932 85.1757 250.652C85.1757 248.381 85.1757 246.109 85.1757 245.799C85.1779 245.7 85.146 245.604 85.0852 245.527C85.0244 245.449 84.9386 245.396 84.8425 245.375L78.3459 243.86C78.1548 243.839 77.9614 243.863 77.7812 243.93C77.601 243.997 77.4391 244.105 77.3086 244.246L74.5903 247.025C74.3037 247.321 73.912 247.493 73.5 247.502C72.1434 247.419 70.7829 247.419 69.4263 247.502C69.074 247.53 68.7246 247.421 68.4496 247.199L65.4663 243.997C65.3232 243.892 65.1585 243.821 64.9842 243.788C64.81 243.755 64.6306 243.762 64.4592 243.807L58.2125 245.322C57.9096 245.397 57.7204 245.579 57.7204 245.776V250.667C57.2888 250.917 56.8799 251.175 56.5013 251.424C56.157 251.667 55.7403 251.784 55.3201 251.758L49.1718 250.728C48.9852 250.717 48.7987 250.752 48.6295 250.832C48.4602 250.911 48.3134 251.032 48.2026 251.182L45.8478 254.468C45.768 254.57 45.7229 254.695 45.7191 254.824C45.7191 255.112 45.7191 259.708 45.7191 262.358C45.6885 262.4 45.6725 262.45 45.6736 262.502L45.6888 262.54ZM79.4741 263.342C78.3283 263.984 77.0968 264.458 75.8169 264.751C71.4404 265.788 66.5945 265.152 63.4295 263.35C63.0905 263.159 62.7643 262.947 62.4527 262.714C62.7253 262.517 63.0282 262.328 63.3538 262.139C67.8136 259.564 75.0446 259.564 79.5044 262.139C79.8232 262.318 80.1316 262.515 80.4282 262.729C80.1234 262.953 79.8047 263.158 79.4741 263.342Z" fill="#42E2B8"/>
<path opacity="0.2" d="M45.6888 262.54C45.6888 262.865 45.6888 268.946 45.6888 269.112C45.6904 269.173 45.7117 269.231 45.7494 269.279L48.3313 272.883C48.4534 273.005 48.6039 273.094 48.7691 273.143C48.9344 273.192 49.1092 273.199 49.2778 273.163L55.2368 272.156C55.6039 272.093 55.9813 272.16 56.3044 272.345C56.7587 272.663 57.2433 272.974 57.7506 273.261C57.7506 273.261 57.7506 278.1 57.7506 278.206C57.759 278.292 57.7953 278.374 57.854 278.438C57.9127 278.502 57.9907 278.546 58.0762 278.562L64.5653 280.114C64.7575 280.136 64.9522 280.113 65.1338 280.045C65.3153 279.978 65.4785 279.87 65.6102 279.728L68.2906 276.911C68.5802 276.62 68.9707 276.452 69.3809 276.442C70.7351 276.521 72.0928 276.521 73.447 276.442C73.802 276.411 74.155 276.519 74.4313 276.745L77.4146 279.887C77.5578 279.994 77.7239 280.067 77.8998 280.1C78.0758 280.133 78.2569 280.125 78.4292 280.076L84.6684 278.562C84.9788 278.486 85.1681 278.289 85.1605 278.092V273.224C85.5845 272.974 85.9934 272.716 86.3796 272.466C86.7268 272.23 87.1414 272.113 87.5608 272.133L93.7091 273.171C93.8955 273.18 94.0815 273.144 94.2505 273.065C94.4196 272.986 94.5665 272.866 94.6783 272.716L97.0255 269.43C97.1112 269.322 97.1591 269.189 97.1618 269.052C97.1618 268.938 97.1618 267.007 97.1618 264.312C97.1871 264.267 97.2026 264.218 97.2072 264.168C97.2072 264.107 97.2072 255.347 97.2072 254.801C97.2083 254.742 97.1897 254.683 97.1542 254.635L94.5723 251.031C94.4487 250.912 94.2978 250.824 94.1329 250.777C93.9679 250.729 93.7938 250.723 93.6258 250.758L87.6668 251.758C87.3071 251.815 86.9386 251.748 86.6219 251.568C86.1563 251.238 85.6735 250.932 85.1757 250.652C85.1757 248.381 85.1757 246.109 85.1757 245.799C85.1779 245.7 85.146 245.604 85.0852 245.527C85.0244 245.449 84.9386 245.396 84.8425 245.375L78.3459 243.86C78.1548 243.839 77.9614 243.863 77.7812 243.93C77.601 243.997 77.4391 244.105 77.3086 244.246L74.5903 247.025C74.3037 247.321 73.912 247.493 73.5 247.502C72.1434 247.419 70.7829 247.419 69.4263 247.502C69.074 247.53 68.7246 247.421 68.4496 247.199L65.4663 243.997C65.3232 243.892 65.1585 243.821 64.9842 243.788C64.81 243.755 64.6306 243.762 64.4592 243.807L58.2125 245.322C57.9096 245.397 57.7204 245.579 57.7204 245.776V250.667C57.2888 250.917 56.8799 251.175 56.5013 251.424C56.157 251.667 55.7403 251.784 55.3201 251.758L49.1718 250.728C48.9852 250.717 48.7987 250.752 48.6295 250.832C48.4602 250.911 48.3134 251.032 48.2026 251.182L45.8478 254.468C45.768 254.57 45.7229 254.695 45.7191 254.824C45.7191 255.112 45.7191 259.708 45.7191 262.358C45.6885 262.4 45.6725 262.45 45.6736 262.502L45.6888 262.54ZM79.4741 263.342C78.3283 263.984 77.0968 264.458 75.8169 264.751C71.4404 265.788 66.5945 265.152 63.4295 263.35C63.0905 263.159 62.7643 262.947 62.4527 262.714C62.7253 262.517 63.0282 262.328 63.3538 262.139C67.8136 259.564 75.0446 259.564 79.5044 262.139C79.8232 262.318 80.1316 262.515 80.4282 262.729C80.1234 262.953 79.8047 263.158 79.4741 263.342Z" fill="black"/>
<path opacity="0.15" d="M90.8612 257.626C90.971 258.3 90.971 258.988 90.8612 259.663C90.8389 259.812 90.8679 259.964 90.9435 260.095C91.0192 260.226 91.137 260.327 91.2777 260.382L96.896 262.154C96.9732 262.175 97.0411 262.222 97.0891 262.286C97.137 262.351 97.1623 262.429 97.161 262.51C97.161 262.623 97.161 264.334 97.161 264.334C97.185 264.292 97.2005 264.246 97.2064 264.198C97.2064 261.01 97.2064 255.68 97.2064 255.21V254.824C97.2064 254.991 97.0323 255.157 96.7597 255.241L91.4594 256.929C91.2972 256.964 91.1508 257.051 91.0427 257.176C90.9346 257.302 90.8709 257.46 90.8612 257.626Z" fill="black"/>
<path opacity="0.15" d="M87.3782 265.546V272.141H87.6053L93.7536 273.178C93.856 273.2 93.9617 273.2 94.0641 273.178V266.606C93.9571 266.632 93.8454 266.632 93.7385 266.606L87.5902 265.576C87.5209 265.558 87.4498 265.548 87.3782 265.546Z" fill="black"/>
<path opacity="0.15" d="M74.0745 269.953V276.555C74.2153 276.596 74.3448 276.668 74.4531 276.767L77.4363 279.909C77.5912 280.037 77.7816 280.114 77.9815 280.129V273.526C77.7788 273.519 77.5842 273.445 77.4288 273.314L74.4001 270.165C74.3067 270.073 74.196 270.001 74.0745 269.953Z" fill="black"/>
<path opacity="0.15" d="M65.0338 273.526V280.106C65.2611 280.047 65.4679 279.926 65.632 279.758L68.3048 276.941C68.5056 276.754 68.7464 276.614 69.009 276.532V269.945C68.741 270.023 68.4964 270.166 68.2973 270.361L65.6168 273.171C65.4556 273.337 65.2551 273.459 65.0338 273.526Z" fill="black"/>
<path opacity="0.15" d="M55.6599 265.561V272.148C55.8902 272.158 56.1143 272.225 56.3111 272.345C56.7799 272.675 57.2651 272.981 57.7649 273.261C57.7649 273.261 57.7649 271.747 57.7649 271.55C57.7722 271.447 57.8005 271.347 57.8482 271.255L59.3625 268.226C59.3994 268.164 59.4235 268.094 59.4336 268.022C59.4436 267.95 59.4394 267.877 59.4211 267.807C59.4028 267.736 59.3708 267.67 59.327 267.613C59.2832 267.555 59.2283 267.506 59.1657 267.469C58.1572 267.007 57.1939 266.452 56.2884 265.811C56.1035 265.675 55.8872 265.589 55.6599 265.561Z" fill="black"/>
<path opacity="0.15" d="M45.6879 262.54C45.6879 262.865 45.6879 268.945 45.6879 269.12C45.6947 269.177 45.7155 269.231 45.7485 269.279L48.3305 272.883C48.4447 273.018 48.6028 273.109 48.7772 273.14V266.56C48.5992 266.528 48.4369 266.437 48.3154 266.303L45.7334 262.699C45.7017 262.652 45.6857 262.596 45.6879 262.54Z" fill="black"/>
<path d="M84.8037 245.344L78.3071 243.83C78.116 243.809 77.9226 243.832 77.7424 243.899C77.5622 243.966 77.4003 244.075 77.2697 244.216L74.5893 247.025C74.3027 247.321 73.911 247.493 73.499 247.502C72.1424 247.419 70.782 247.419 69.4254 247.502C69.0731 247.53 68.7237 247.421 68.4486 247.199L65.4653 243.997C65.3222 243.892 65.1575 243.821 64.9833 243.788C64.809 243.755 64.6296 243.762 64.4583 243.807L58.2116 245.322C57.9087 245.397 57.7194 245.579 57.7194 245.776C57.7123 245.821 57.7123 245.867 57.7194 245.912L59.4155 249.266C59.5366 249.501 59.3322 249.827 58.9612 250.024C58.5901 250.221 58.098 250.455 57.6967 250.682C57.2954 250.91 56.8562 251.19 56.4776 251.44C56.1334 251.682 55.7166 251.8 55.2964 251.773L49.1481 250.743C48.9615 250.732 48.7751 250.768 48.6058 250.847C48.4365 250.926 48.2898 251.047 48.1789 251.197L45.8241 254.483C45.7443 254.585 45.6992 254.71 45.6954 254.839C45.6957 254.916 45.7209 254.991 45.7673 255.053C45.8137 255.114 45.8788 255.159 45.9528 255.18L51.5711 256.959C51.7126 257.013 51.8312 257.114 51.9071 257.245C51.9829 257.376 52.0113 257.529 51.9875 257.679C51.8777 258.351 51.8777 259.036 51.9875 259.708C52.033 259.981 51.7755 260.291 51.4045 260.412L46.1043 262.093C45.9379 262.133 45.7922 262.232 45.6954 262.373C45.6648 262.415 45.6489 262.465 45.65 262.517C45.65 262.574 45.6686 262.63 45.703 262.676L48.2849 266.28C48.4092 266.398 48.5601 266.485 48.7249 266.532C48.8896 266.58 49.0634 266.587 49.2314 266.553L55.198 265.553C55.5642 265.49 55.9411 265.554 56.2656 265.735C57.1739 266.372 58.1368 266.927 59.1429 267.393C59.2056 267.43 59.2604 267.479 59.3042 267.537C59.3481 267.595 59.38 267.661 59.3983 267.731C59.4166 267.801 59.4208 267.875 59.4108 267.947C59.4007 268.019 59.3766 268.088 59.3398 268.151L57.8481 271.255C57.8067 271.315 57.7806 271.384 57.7719 271.456C57.7633 271.528 57.7724 271.602 57.7985 271.67C57.8246 271.737 57.867 271.798 57.9218 271.846C57.9766 271.894 58.0423 271.927 58.1131 271.944L64.6021 273.504C64.793 273.522 64.9856 273.497 65.1653 273.43C65.345 273.363 65.5072 273.256 65.6395 273.118L68.3199 270.301C68.6107 270.006 69.004 269.835 69.4178 269.824C70.7719 269.907 72.1298 269.907 73.4838 269.824C73.8358 269.8 74.1841 269.908 74.4606 270.127L77.4893 273.277C77.6326 273.381 77.7976 273.452 77.972 273.483C78.1464 273.515 78.3257 273.506 78.4964 273.458L84.7355 271.944C85.1065 271.846 85.3186 271.588 85.1974 271.346L83.5013 267.999C83.3878 267.757 83.5846 267.439 83.9556 267.242C84.824 266.834 85.6572 266.356 86.4468 265.811C86.7879 265.568 87.2025 265.45 87.6204 265.478L93.7687 266.507C93.9557 266.522 94.1434 266.488 94.3133 266.408C94.4832 266.329 94.6295 266.206 94.7379 266.053L97.0927 262.775C97.1689 262.667 97.2159 262.542 97.229 262.411C97.2291 262.331 97.2033 262.253 97.1555 262.189C97.1078 262.125 97.0406 262.078 96.964 262.055L91.3457 260.276C91.2048 260.224 91.0864 260.124 91.0105 259.994C90.9346 259.865 90.9059 259.713 90.9293 259.564C91.0391 258.89 91.0391 258.202 90.9293 257.527C90.938 257.364 90.9996 257.207 91.1047 257.082C91.2098 256.956 91.3528 256.868 91.5123 256.831L96.8125 255.142C97.0851 255.059 97.2517 254.892 97.2593 254.726C97.2604 254.666 97.2418 254.607 97.2063 254.559L94.6243 250.955C94.5007 250.836 94.3499 250.749 94.1849 250.701C94.0199 250.654 93.8459 250.647 93.6778 250.682L87.7188 251.682C87.3509 251.775 86.9619 251.735 86.6209 251.568C86.1553 251.238 85.6726 250.932 85.1747 250.652C84.7128 250.387 84.2358 250.145 83.7361 249.895C83.611 249.819 83.5204 249.698 83.4836 249.556C83.4468 249.415 83.4668 249.265 83.5392 249.138L85.1066 246.041C85.1493 245.964 85.1727 245.879 85.1747 245.791C85.1813 245.683 85.1466 245.577 85.0777 245.494C85.0087 245.411 84.9108 245.358 84.8037 245.344ZM67.0781 252.575C72.9008 251.182 79.5791 252.772 81.987 256.142C82.427 256.695 82.7127 257.355 82.8151 258.054C82.9175 258.754 82.8329 259.468 82.57 260.124C82.5544 260.174 82.5342 260.222 82.5094 260.268C82.4924 260.315 82.4722 260.361 82.4489 260.405L82.3883 260.533C81.9149 261.395 81.249 262.136 80.4423 262.699C80.1376 262.923 79.8189 263.128 79.4883 263.312C78.3425 263.953 77.111 264.427 75.8311 264.721C71.4546 265.758 66.6087 265.122 63.4437 263.32C63.1047 263.129 62.7785 262.917 62.4669 262.684C61.8732 262.264 61.3494 261.752 60.9147 261.169C60.4107 260.532 60.1113 259.757 60.0559 258.946C60.0005 258.135 60.1917 257.326 60.6042 256.626C60.6042 256.588 60.6042 256.551 60.6648 256.52L60.8011 256.301C60.8768 256.187 60.9525 256.074 61.0434 255.96L61.2706 255.68L61.3841 255.559L61.5431 255.4C63.0927 253.966 65.0082 252.989 67.0781 252.575Z" fill="#42E2B8"/>
<path d="M81.7468 94.4074L83.6736 99.0642L81.7512 99.8586L79.8112 95.1711L76.6292 97.6421V84.5276L85.8111 93.8017L81.7468 94.4074Z" fill="#EBEBEB"/>
</svg>
